<svg width="51" height="56" viewBox="0 0 51 56" fill="none" xmlns="http://www.w3.org/2000/svg">
<path fill-rule="evenodd" clip-rule="evenodd" d="M23.9943 54.9906L13.9058 52.297L6.74838 46.9099L2.31764 39.1658L0.886108 32.4992L1.43146 25.2265L1.90856 23.6104L8.31619 23.8797L16.1552 27.0447L21.5403 31.6238L24.6077 36.2029L26.5164 40.8494L28.016 46.3711L27.6751 51.893L25.8347 54.4519L23.9943 54.9906Z" fill="url(#paint0_linear_17191_41617)" stroke="#2B2A29" stroke-width="0.288" stroke-miterlimit="22.9256"/>
<mask id="mask0_17191_41617" style="mask-type:luminance" maskUnits="userSpaceOnUse" x="13" y="8" width="25" height="47">
<path d="M22.6985 52.573L22.0645 51.726L18.0326 48.0246L14.9332 43.2994L13.5561 37.4068L13.5861 35.3062L13.0498 33.2284L13.6233 29.6181V27.5841L14.0726 26.5696L14.1055 26.5811L14.6462 23.1777L18.1564 16.1975L23.8744 10.0613L25.4642 8.94727L31.0139 13.6848L35.765 22.0224L37.2997 29.9057L36.7569 36.1627L35.1269 41.6669L32.5007 47.6688L28.2251 52.3793L27.2869 52.6488L27.2433 52.8356L25.9616 54.2752L24.9282 54.3551L23.2068 52.7749L22.6985 52.573Z" fill="white"/>
</mask>
<g mask="url(#mask0_17191_41617)">
<path fill-rule="evenodd" clip-rule="evenodd" d="M39.4668 10.3842L39.4406 10.6325L15.6616 8.1928L15.6878 7.94434L39.4668 10.3842Z" fill="#EF8556"/>
<path fill-rule="evenodd" clip-rule="evenodd" d="M39.4495 10.5482L39.4228 10.8009L15.6439 8.36122L15.6705 8.1084L39.4495 10.5482Z" fill="#EF8556"/>
<path fill-rule="evenodd" clip-rule="evenodd" d="M39.4319 10.7171L39.4054 10.9699L15.6263 8.53004L15.6529 8.27734L39.4319 10.7171Z" fill="#F08556"/>
<path fill-rule="evenodd" clip-rule="evenodd" d="M39.4142 10.8852L39.3877 11.1379L15.6086 8.69813L15.6352 8.44531L39.4142 10.8852Z" fill="#F08556"/>
<path fill-rule="evenodd" clip-rule="evenodd" d="M39.3957 11.0541L39.3691 11.3068L15.5901 8.86708L15.6166 8.61426L39.3957 11.0541Z" fill="#F08556"/>
<path fill-rule="evenodd" clip-rule="evenodd" d="M39.378 11.2219L39.3514 11.4748L15.5724 9.03492L15.5991 8.78223L39.378 11.2219Z" fill="#F08556"/>
<path fill-rule="evenodd" clip-rule="evenodd" d="M39.3609 11.391L39.3342 11.6437L15.5553 9.20399L15.5818 8.95117L39.3609 11.391Z" fill="#F08656"/>
<path fill-rule="evenodd" clip-rule="evenodd" d="M39.3428 11.559L39.3161 11.8117L15.5372 9.37196L15.5638 9.11914L39.3428 11.559Z" fill="#F08656"/>
<path fill-rule="evenodd" clip-rule="evenodd" d="M39.3253 11.7278L39.2988 11.9806L15.5198 9.54078L15.5463 9.28809L39.3253 11.7278Z" fill="#F08657"/>
<path fill-rule="evenodd" clip-rule="evenodd" d="M39.3083 11.8959L39.2817 12.1486L15.5027 9.70875L15.5292 9.45605L39.3083 11.8959Z" fill="#F08657"/>
<path fill-rule="evenodd" clip-rule="evenodd" d="M39.291 12.0648L39.2645 12.3175L15.4855 9.87782L15.5121 9.625L39.291 12.0648Z" fill="#F08757"/>
<path fill-rule="evenodd" clip-rule="evenodd" d="M39.272 12.2337L39.2455 12.4865L15.4664 10.0466L15.4931 9.79395L39.272 12.2337Z" fill="#F08757"/>
<path fill-rule="evenodd" clip-rule="evenodd" d="M39.2543 12.4018L39.2276 12.6545L15.4487 10.2146L15.4753 9.96191L39.2543 12.4018Z" fill="#F08757"/>
<path fill-rule="evenodd" clip-rule="evenodd" d="M39.2367 12.5707L39.2102 12.8234L15.4312 10.3837L15.4577 10.1309L39.2367 12.5707Z" fill="#F08857"/>
<path fill-rule="evenodd" clip-rule="evenodd" d="M39.2191 12.7385L39.1926 12.9914L15.4136 10.5515L15.4401 10.2988L39.2191 12.7385Z" fill="#F08857"/>
<path fill-rule="evenodd" clip-rule="evenodd" d="M39.2014 12.9075L39.1749 13.1603L15.3959 10.7205L15.4224 10.4678L39.2014 12.9075Z" fill="#F08857"/>
<path fill-rule="evenodd" clip-rule="evenodd" d="M39.1843 13.0756L39.1578 13.3283L15.3788 10.8886L15.4055 10.6357L39.1843 13.0756Z" fill="#F08958"/>
<path fill-rule="evenodd" clip-rule="evenodd" d="M39.1664 13.2444L39.1397 13.4972L15.3608 11.0574L15.3874 10.8047L39.1664 13.2444Z" fill="#F08958"/>
<path fill-rule="evenodd" clip-rule="evenodd" d="M39.1476 13.4124L39.1211 13.6652L15.342 11.2254L15.3686 10.9727L39.1476 13.4124Z" fill="#F08958"/>
<path fill-rule="evenodd" clip-rule="evenodd" d="M39.1306 13.5814L39.1041 13.8341L15.3251 11.3944L15.3516 11.1416L39.1306 13.5814Z" fill="#F08958"/>
<path fill-rule="evenodd" clip-rule="evenodd" d="M39.1128 13.7503L39.0863 14.0031L15.3073 11.5632L15.3338 11.3105L39.1128 13.7503Z" fill="#F08A58"/>
<path fill-rule="evenodd" clip-rule="evenodd" d="M39.0951 13.9182L39.0686 14.1711L15.2896 11.7312L15.3162 11.4785L39.0951 13.9182Z" fill="#F08A58"/>
<path fill-rule="evenodd" clip-rule="evenodd" d="M39.0775 14.0873L39.051 14.34L15.272 11.9003L15.2986 11.6475L39.0775 14.0873Z" fill="#F08A59"/>
<path fill-rule="evenodd" clip-rule="evenodd" d="M39.0607 14.2551L39.034 14.508L15.2551 12.0681L15.2817 11.8154L39.0607 14.2551Z" fill="#F08B59"/>
<path fill-rule="evenodd" clip-rule="evenodd" d="M39.0423 14.4241L39.0157 14.6769L15.2367 12.2371L15.2632 11.9844L39.0423 14.4241Z" fill="#F08B59"/>
<path fill-rule="evenodd" clip-rule="evenodd" d="M39.0237 14.5922L38.9972 14.8449L15.2181 12.4052L15.2447 12.1523L39.0237 14.5922Z" fill="#F08B59"/>
<path fill-rule="evenodd" clip-rule="evenodd" d="M39.0067 14.761L38.9802 15.0138L15.2012 12.574L15.2277 12.3213L39.0067 14.761Z" fill="#F08B59"/>
<path fill-rule="evenodd" clip-rule="evenodd" d="M38.9892 14.929L38.9626 15.1818L15.1836 12.742L15.2103 12.4893L38.9892 14.929Z" fill="#F08B59"/>
<path fill-rule="evenodd" clip-rule="evenodd" d="M38.9712 15.098L38.9445 15.3507L15.1656 12.911L15.1922 12.6582L38.9712 15.098Z" fill="#F08B59"/>
<path fill-rule="evenodd" clip-rule="evenodd" d="M38.9536 15.2659L38.9271 15.5187L15.1481 13.0789L15.1746 12.8262L38.9536 15.2659Z" fill="#F08B59"/>
<path fill-rule="evenodd" clip-rule="evenodd" d="M38.9361 15.4348L38.9095 15.6877L15.1305 13.2478L15.157 12.9951L38.9361 15.4348Z" fill="#F08C59"/>
<path fill-rule="evenodd" clip-rule="evenodd" d="M38.9176 15.6029L38.8911 15.8556L15.1121 13.4159L15.1386 13.1631L38.9176 15.6029Z" fill="#F08C59"/>
<path fill-rule="evenodd" clip-rule="evenodd" d="M38.9008 15.7718L38.8742 16.0246L15.0952 13.5847L15.1219 13.332L38.9008 15.7718Z" fill="#F08C59"/>
<path fill-rule="evenodd" clip-rule="evenodd" d="M38.882 15.9407L38.8554 16.1935L15.0765 13.7537L15.1031 13.501L38.882 15.9407Z" fill="#F08D59"/>
<path fill-rule="evenodd" clip-rule="evenodd" d="M38.8653 16.1088L38.8386 16.3615L15.0597 13.9218L15.0862 13.6689L38.8653 16.1088Z" fill="#F08D59"/>
<path fill-rule="evenodd" clip-rule="evenodd" d="M38.8468 16.2777L38.8203 16.5305L15.0413 14.0907L15.0678 13.8379L38.8468 16.2777Z" fill="#F08D5A"/>
<path fill-rule="evenodd" clip-rule="evenodd" d="M38.8295 16.4456L38.8029 16.6984L15.0239 14.2586L15.0505 14.0059L38.8295 16.4456Z" fill="#F08E5A"/>
<path fill-rule="evenodd" clip-rule="evenodd" d="M38.8124 16.6146L38.7859 16.8673L15.0068 14.4276L15.0334 14.1748L38.8124 16.6146Z" fill="#F08E5A"/>
<path fill-rule="evenodd" clip-rule="evenodd" d="M38.7937 16.7826L38.7672 17.0353L14.9882 14.5956L15.0148 14.3428L38.7937 16.7826Z" fill="#F08E5A"/>
<path fill-rule="evenodd" clip-rule="evenodd" d="M38.7761 16.9514L38.7495 17.2043L14.9706 14.7644L14.9971 14.5117L38.7761 16.9514Z" fill="#F08F5A"/>
<path fill-rule="evenodd" clip-rule="evenodd" d="M38.7584 17.1195L38.7319 17.3722L14.9529 14.9325L14.9794 14.6797L38.7584 17.1195Z" fill="#F08F5A"/>
<path fill-rule="evenodd" clip-rule="evenodd" d="M38.7409 17.2885L38.7143 17.5412L14.9353 15.1015L14.9618 14.8486L38.7409 17.2885Z" fill="#F08F5A"/>
<path fill-rule="evenodd" clip-rule="evenodd" d="M38.7237 17.4573L38.6971 17.7101L14.9181 15.2703L14.9446 15.0176L38.7237 17.4573Z" fill="#F08F5A"/>
<path fill-rule="evenodd" clip-rule="evenodd" d="M38.7061 17.6254L38.6795 17.8781L14.9005 15.4384L14.9272 15.1855L38.7061 17.6254Z" fill="#F08F5A"/>
<path fill-rule="evenodd" clip-rule="evenodd" d="M38.6885 17.7943L38.6618 18.047L14.8829 15.6073L14.9095 15.3545L38.6885 17.7943Z" fill="#F08F5A"/>
<path fill-rule="evenodd" clip-rule="evenodd" d="M38.6701 17.9622L38.6434 18.215L14.8645 15.7752L14.891 15.5225L38.6701 17.9622Z" fill="#F1905B"/>
<path fill-rule="evenodd" clip-rule="evenodd" d="M38.6518 18.1312L38.6252 18.3839L14.8462 15.9442L14.8727 15.6914L38.6518 18.1312Z" fill="#F1905B"/>
<path fill-rule="evenodd" clip-rule="evenodd" d="M38.6355 18.2992L38.609 18.5519L14.83 16.1122L14.8565 15.8594L38.6355 18.2992Z" fill="#F1915B"/>
<path fill-rule="evenodd" clip-rule="evenodd" d="M38.6175 18.468L38.5909 18.7209L14.8119 16.281L14.8386 16.0283L38.6175 18.468Z" fill="#F1915C"/>
<path fill-rule="evenodd" clip-rule="evenodd" d="M38.6 18.6361L38.5734 18.8888L14.7944 16.4491L14.8211 16.1963L38.6 18.6361Z" fill="#F1915C"/>
<path fill-rule="evenodd" clip-rule="evenodd" d="M38.5817 18.8051L38.555 19.0578L14.7761 16.6181L14.8027 16.3652L38.5817 18.8051Z" fill="#F1925C"/>
<path fill-rule="evenodd" clip-rule="evenodd" d="M38.5634 18.9729L38.5368 19.2257L14.7578 16.7859L14.7844 16.5332L38.5634 18.9729Z" fill="#F1925C"/>
<path fill-rule="evenodd" clip-rule="evenodd" d="M38.5457 19.142L38.5191 19.3947L14.7401 16.955L14.7667 16.7021L38.5457 19.142Z" fill="#F1925C"/>
<path fill-rule="evenodd" clip-rule="evenodd" d="M38.5286 19.3109L38.502 19.5636L14.723 17.1239L14.7496 16.8711L38.5286 19.3109Z" fill="#F1935C"/>
<path fill-rule="evenodd" clip-rule="evenodd" d="M38.5109 19.4788L38.4843 19.7316L14.7053 17.2918L14.732 17.0391L38.5109 19.4788Z" fill="#F1935C"/>
<path fill-rule="evenodd" clip-rule="evenodd" d="M38.4933 19.6478L38.4666 19.9005L14.6877 17.4608L14.7143 17.208L38.4933 19.6478Z" fill="#F1935C"/>
<path fill-rule="evenodd" clip-rule="evenodd" d="M38.4756 19.8158L38.4491 20.0685L14.67 17.6288L14.6966 17.376L38.4756 19.8158Z" fill="#F1935C"/>
<path fill-rule="evenodd" clip-rule="evenodd" d="M38.458 19.9846L38.4315 20.2375L14.6525 17.7976L14.679 17.5449L38.458 19.9846Z" fill="#F1935C"/>
<path fill-rule="evenodd" clip-rule="evenodd" d="M38.439 20.1527L38.4124 20.4054L14.6334 17.9656L14.66 17.7129L38.439 20.1527Z" fill="#F1945C"/>
<path fill-rule="evenodd" clip-rule="evenodd" d="M38.4218 20.3217L38.3952 20.5744L14.6162 18.1347L14.6429 17.8818L38.4218 20.3217Z" fill="#F1945D"/>
<path fill-rule="evenodd" clip-rule="evenodd" d="M38.4052 20.4895L38.3786 20.7423L14.5996 18.3025L14.6263 18.0498L38.4052 20.4895Z" fill="#F1945D"/>
<path fill-rule="evenodd" clip-rule="evenodd" d="M38.3865 20.6586L38.3598 20.9113L14.5809 18.4714L14.6075 18.2188L38.3865 20.6586Z" fill="#F1955D"/>
<path fill-rule="evenodd" clip-rule="evenodd" d="M38.3689 20.8266L38.3424 21.0793L14.5634 18.6395L14.5899 18.3867L38.3689 20.8266Z" fill="#F1955D"/>
<path fill-rule="evenodd" clip-rule="evenodd" d="M38.3512 20.9954L38.3247 21.2482L14.5457 18.8084L14.5722 18.5557L38.3512 20.9954Z" fill="#F1955D"/>
<path fill-rule="evenodd" clip-rule="evenodd" d="M38.3336 21.1643L38.3071 21.4171L14.5281 18.9773L14.5546 18.7246L38.3336 21.1643Z" fill="#F1965D"/>
<path fill-rule="evenodd" clip-rule="evenodd" d="M38.3156 21.3324L38.289 21.5851L14.51 19.1454L14.5367 18.8926L38.3156 21.3324Z" fill="#F1965D"/>
<path fill-rule="evenodd" clip-rule="evenodd" d="M38.2981 21.5012L38.2715 21.7541L14.4926 19.3142L14.5191 19.0615L38.2981 21.5012Z" fill="#F2975E"/>
<path fill-rule="evenodd" clip-rule="evenodd" d="M38.2805 21.6692L38.254 21.922L14.475 19.4822L14.5015 19.2295L38.2805 21.6692Z" fill="#F2975E"/>
<path fill-rule="evenodd" clip-rule="evenodd" d="M38.2626 21.8383L38.2361 22.091L14.457 19.6513L14.4836 19.3984L38.2626 21.8383Z" fill="#F2975E"/>
<path fill-rule="evenodd" clip-rule="evenodd" d="M38.245 22.0061L38.2185 22.2589L14.4395 19.8191L14.466 19.5664L38.245 22.0061Z" fill="#F2985E"/>
<path fill-rule="evenodd" clip-rule="evenodd" d="M38.2273 22.1751L38.2008 22.4279L14.4218 19.988L14.4484 19.7354L38.2273 22.1751Z" fill="#F2985E"/>
<path fill-rule="evenodd" clip-rule="evenodd" d="M38.2096 22.3432L38.1831 22.5959L14.4042 20.1561L14.4307 19.9033L38.2096 22.3432Z" fill="#F2985F"/>
<path fill-rule="evenodd" clip-rule="evenodd" d="M38.1912 22.512L38.1645 22.7648L14.3856 20.325L14.4122 20.0723L38.1912 22.512Z" fill="#F1985F"/>
<path fill-rule="evenodd" clip-rule="evenodd" d="M38.1737 22.6809L38.1472 22.9337L14.3682 20.4939L14.3947 20.2412L38.1737 22.6809Z" fill="#F1995F"/>
<path fill-rule="evenodd" clip-rule="evenodd" d="M38.1559 22.849L38.1294 23.1017L14.3503 20.662L14.3769 20.4092L38.1559 22.849Z" fill="#F1995F"/>
<path fill-rule="evenodd" clip-rule="evenodd" d="M38.1389 23.0178L38.1124 23.2707L14.3334 20.8308L14.3599 20.5781L38.1389 23.0178Z" fill="#F1995F"/>
<path fill-rule="evenodd" clip-rule="evenodd" d="M38.1204 23.1858L38.0938 23.4386L14.3148 20.9988L14.3415 20.7461L38.1204 23.1858Z" fill="#F29A5F"/>
<path fill-rule="evenodd" clip-rule="evenodd" d="M38.1027 23.3549L38.076 23.6076L14.2971 21.1679L14.3237 20.915L38.1027 23.3549Z" fill="#F29A5F"/>
<path fill-rule="evenodd" clip-rule="evenodd" d="M38.0854 23.5227L38.0588 23.7755L14.2798 21.3357L14.3063 21.083L38.0854 23.5227Z" fill="#F29B5F"/>
<path fill-rule="evenodd" clip-rule="evenodd" d="M38.0675 23.6917L38.041 23.9445L14.262 21.5047L14.2885 21.252L38.0675 23.6917Z" fill="#F29B60"/>
<path fill-rule="evenodd" clip-rule="evenodd" d="M38.0498 23.8598L38.0233 24.1125L14.2443 21.6727L14.2708 21.4199L38.0498 23.8598Z" fill="#F29B60"/>
<path fill-rule="evenodd" clip-rule="evenodd" d="M38.032 24.0286L38.0055 24.2814L14.2264 21.8416L14.2531 21.5889L38.032 24.0286Z" fill="#F29B60"/>
<path fill-rule="evenodd" clip-rule="evenodd" d="M38.0145 24.1966L37.9879 24.4494L14.209 22.0095L14.2355 21.7568L38.0145 24.1966Z" fill="#F29B60"/>
<path fill-rule="evenodd" clip-rule="evenodd" d="M37.997 24.3656L37.9703 24.6183L14.1914 22.1786L14.218 21.9258L37.997 24.3656Z" fill="#F29C60"/>
<path fill-rule="evenodd" clip-rule="evenodd" d="M37.9783 24.5336L37.9518 24.7864L14.1727 22.3466L14.1993 22.0938L37.9783 24.5336Z" fill="#F29C60"/>
<path fill-rule="evenodd" clip-rule="evenodd" d="M37.9607 24.7024L37.9342 24.9552L14.1552 22.5154L14.1817 22.2627L37.9607 24.7024Z" fill="#F29D61"/>
<path fill-rule="evenodd" clip-rule="evenodd" d="M37.9438 24.8715L37.9172 25.1242L14.1382 22.6845L14.1649 22.4316L37.9438 24.8715Z" fill="#F29D61"/>
<path fill-rule="evenodd" clip-rule="evenodd" d="M37.9254 25.0395L37.8989 25.2921L14.1199 22.8524L14.1465 22.5996L37.9254 25.0395Z" fill="#F29E61"/>
<path fill-rule="evenodd" clip-rule="evenodd" d="M37.9079 25.2083L37.8812 25.4611L14.1023 23.0213L14.1288 22.7686L37.9079 25.2083Z" fill="#F29E61"/>
<path fill-rule="evenodd" clip-rule="evenodd" d="M37.8906 25.3764L37.8641 25.6291L14.0851 23.1893L14.1116 22.9365L37.8906 25.3764Z" fill="#F29F62"/>
<path fill-rule="evenodd" clip-rule="evenodd" d="M37.8723 25.5453L37.8458 25.798L14.0668 23.3583L14.0933 23.1055L37.8723 25.5453Z" fill="#F29F62"/>
<path fill-rule="evenodd" clip-rule="evenodd" d="M37.8546 25.7132L37.8281 25.966L14.0491 23.5261L14.0756 23.2734L37.8546 25.7132Z" fill="#F29F62"/>
<path fill-rule="evenodd" clip-rule="evenodd" d="M37.8375 25.8822L37.811 26.1349L14.032 23.6952L14.0586 23.4424L37.8375 25.8822Z" fill="#F29F62"/>
<path fill-rule="evenodd" clip-rule="evenodd" d="M37.8195 26.0502L37.7928 26.3029L14.0139 23.8632L14.0405 23.6104L37.8195 26.0502Z" fill="#F29F62"/>
<path fill-rule="evenodd" clip-rule="evenodd" d="M37.8018 26.219L37.7752 26.4718L13.9962 24.032L14.0228 23.7793L37.8018 26.219Z" fill="#F3A062"/>
<path fill-rule="evenodd" clip-rule="evenodd" d="M37.7842 26.3881L37.7577 26.6408L13.9786 24.2011L14.0052 23.9482L37.7842 26.3881Z" fill="#F3A062"/>
<path fill-rule="evenodd" clip-rule="evenodd" d="M37.767 26.5561L37.7404 26.8087L13.9614 24.369L13.988 24.1162L37.767 26.5561Z" fill="#F3A162"/>
<path fill-rule="evenodd" clip-rule="evenodd" d="M37.7484 26.7249L37.7219 26.9777L13.9429 24.5379L13.9695 24.2852L37.7484 26.7249Z" fill="#F3A163"/>
<path fill-rule="evenodd" clip-rule="evenodd" d="M37.73 26.893L37.7035 27.1457L13.9244 24.7059L13.9511 24.4531L37.73 26.893Z" fill="#F3A263"/>
<path fill-rule="evenodd" clip-rule="evenodd" d="M37.7127 27.0619L37.686 27.3146L13.9071 24.8749L13.9336 24.6221L37.7127 27.0619Z" fill="#F3A263"/>
<path fill-rule="evenodd" clip-rule="evenodd" d="M37.6955 27.2298L37.6689 27.4826L13.8899 25.0427L13.9164 24.79L37.6955 27.2298Z" fill="#F3A363"/>
<path fill-rule="evenodd" clip-rule="evenodd" d="M37.6769 27.3988L37.6504 27.6515L13.8713 25.2118L13.8979 24.959L37.6769 27.3988Z" fill="#F3A363"/>
<path fill-rule="evenodd" clip-rule="evenodd" d="M37.6603 27.5668L37.6338 27.8195L13.8547 25.3798L13.8813 25.127L37.6603 27.5668Z" fill="#F3A364"/>
<path fill-rule="evenodd" clip-rule="evenodd" d="M37.6421 27.7356L37.6156 27.9884L13.8365 25.5486L13.8632 25.2959L37.6421 27.7356Z" fill="#F3A364"/>
<path fill-rule="evenodd" clip-rule="evenodd" d="M37.624 27.9037L37.5974 28.1564L13.8185 25.7167L13.845 25.4639L37.624 27.9037Z" fill="#F3A464"/>
<path fill-rule="evenodd" clip-rule="evenodd" d="M37.6066 28.0727L37.58 28.3254L13.801 25.8856L13.8276 25.6328L37.6066 28.0727Z" fill="#F3A565"/>
<path fill-rule="evenodd" clip-rule="evenodd" d="M37.5888 28.2415L37.5622 28.4943L13.7832 26.0545L13.8097 25.8018L37.5888 28.2415Z" fill="#F3A565"/>
<path fill-rule="evenodd" clip-rule="evenodd" d="M37.5716 28.4096L37.545 28.6623L13.766 26.2224L13.7925 25.9697L37.5716 28.4096Z" fill="#F3A665"/>
<path fill-rule="evenodd" clip-rule="evenodd" d="M37.5542 28.5785L37.5277 28.8312L13.7487 26.3915L13.7753 26.1387L37.5542 28.5785Z" fill="#F3A665"/>
<path fill-rule="evenodd" clip-rule="evenodd" d="M37.5365 28.7464L37.51 28.9992L13.7311 26.5593L13.7576 26.3066L37.5365 28.7464Z" fill="#F3A665"/>
<path fill-rule="evenodd" clip-rule="evenodd" d="M37.5187 28.9154L37.492 29.1681L13.7131 26.7283L13.7397 26.4756L37.5187 28.9154Z" fill="#F3A665"/>
<path fill-rule="evenodd" clip-rule="evenodd" d="M37.5004 29.0834L37.4738 29.3361L13.6948 26.8964L13.7214 26.6436L37.5004 29.0834Z" fill="#F3A765"/>
<path fill-rule="evenodd" clip-rule="evenodd" d="M37.4832 29.2522L37.4566 29.505L13.6776 27.0652L13.7042 26.8125L37.4832 29.2522Z" fill="#F3A765"/>
<path fill-rule="evenodd" clip-rule="evenodd" d="M37.4651 29.4202L37.4386 29.673L13.6595 27.2332L13.6861 26.9805L37.4651 29.4202Z" fill="#F3A866"/>
<path fill-rule="evenodd" clip-rule="evenodd" d="M37.4479 29.5893L37.4214 29.842L13.6423 27.4022L13.669 27.1494L37.4479 29.5893Z" fill="#F3A866"/>
<path fill-rule="evenodd" clip-rule="evenodd" d="M37.4303 29.7581L37.4037 30.0109L13.6248 27.5711L13.6513 27.3184L37.4303 29.7581Z" fill="#F3A967"/>
<path fill-rule="evenodd" clip-rule="evenodd" d="M37.4118 29.926L37.3852 30.1789L13.6062 27.739L13.6327 27.4863L37.4118 29.926Z" fill="#F3AA67"/>
<path fill-rule="evenodd" clip-rule="evenodd" d="M37.3936 30.0951L37.367 30.3478L13.588 27.9081L13.6146 27.6553L37.3936 30.0951Z" fill="#F3AA67"/>
<path fill-rule="evenodd" clip-rule="evenodd" d="M37.3765 30.263L37.3499 30.5158L13.5709 28.0759L13.5975 27.8232L37.3765 30.263Z" fill="#F3AA67"/>
<path fill-rule="evenodd" clip-rule="evenodd" d="M37.3588 30.4319L37.3322 30.6847L13.5532 28.2449L13.5799 27.9922L37.3588 30.4319Z" fill="#F3AA67"/>
<path fill-rule="evenodd" clip-rule="evenodd" d="M37.3412 30.6L37.3145 30.8527L13.5356 28.413L13.5622 28.1602L37.3412 30.6Z" fill="#F4AB68"/>
<path fill-rule="evenodd" clip-rule="evenodd" d="M37.3228 30.7688L37.2961 31.0216L13.5172 28.5818L13.5438 28.3291L37.3228 30.7688Z" fill="#F4AB68"/>
<path fill-rule="evenodd" clip-rule="evenodd" d="M37.3064 30.9368L37.2799 31.1896L13.5009 28.7498L13.5274 28.4971L37.3064 30.9368Z" fill="#F4AC68"/>
<path fill-rule="evenodd" clip-rule="evenodd" d="M37.2888 31.1059L37.2623 31.3586L13.4833 28.9188L13.5098 28.666L37.2888 31.1059Z" fill="#F4AD68"/>
<path fill-rule="evenodd" clip-rule="evenodd" d="M37.2697 31.2737L37.2431 31.5265L13.4641 29.0867L13.4908 28.834L37.2697 31.2737Z" fill="#F4AD68"/>
<path fill-rule="evenodd" clip-rule="evenodd" d="M37.2528 31.4426L37.2263 31.6955L13.4473 29.2556L13.4739 29.0029L37.2528 31.4426Z" fill="#F4AD69"/>
<path fill-rule="evenodd" clip-rule="evenodd" d="M37.2351 31.6107L37.2085 31.8634L13.4296 29.4237L13.4561 29.1709L37.2351 31.6107Z" fill="#F4AE69"/>
<path fill-rule="evenodd" clip-rule="evenodd" d="M37.2168 31.7796L37.1903 32.0324L13.4113 29.5925L13.4378 29.3398L37.2168 31.7796Z" fill="#F4AE6A"/>
<path fill-rule="evenodd" clip-rule="evenodd" d="M37.1996 31.9485L37.1731 32.2013L13.394 29.7615L13.4206 29.5088L37.1996 31.9485Z" fill="#F4AF6A"/>
<path fill-rule="evenodd" clip-rule="evenodd" d="M37.182 32.1166L37.1555 32.3693L13.3765 29.9296L13.403 29.6768L37.182 32.1166Z" fill="#F4AF6A"/>
<path fill-rule="evenodd" clip-rule="evenodd" d="M37.1637 32.2854L37.1372 32.5382L13.3582 30.0984L13.3848 29.8457L37.1637 32.2854Z" fill="#F4B06A"/>
<path fill-rule="evenodd" clip-rule="evenodd" d="M37.146 32.4534L37.1194 32.7062L13.3405 30.2664L13.367 30.0137L37.146 32.4534Z" fill="#F5B16A"/>
<path fill-rule="evenodd" clip-rule="evenodd" d="M37.1282 32.6225L37.1017 32.8752L13.3226 30.4354L13.3492 30.1826L37.1282 32.6225Z" fill="#F5B16A"/>
<path fill-rule="evenodd" clip-rule="evenodd" d="M37.1112 32.7904L37.0847 33.0431L13.3057 30.6034L13.3322 30.3506L37.1112 32.7904Z" fill="#F4B16B"/>
<path fill-rule="evenodd" clip-rule="evenodd" d="M37.0937 32.9592L37.0671 33.2121L13.2881 30.7722L13.3146 30.5195L37.0937 32.9592Z" fill="#F4B26C"/>
<path fill-rule="evenodd" clip-rule="evenodd" d="M37.0757 33.1273L37.0492 33.38L13.2701 30.9403L13.2968 30.6875L37.0757 33.1273Z" fill="#F4B26C"/>
<path fill-rule="evenodd" clip-rule="evenodd" d="M37.0584 33.2963L37.0318 33.549L13.2528 31.1093L13.2795 30.8564L37.0584 33.2963Z" fill="#F4B36C"/>
<path fill-rule="evenodd" clip-rule="evenodd" d="M37.0407 33.4651L37.014 33.7179L13.2351 31.2781L13.2617 31.0254L37.0407 33.4651Z" fill="#F4B46C"/>
<path fill-rule="evenodd" clip-rule="evenodd" d="M37.0216 33.6332L36.9951 33.8859L13.2161 31.4462L13.2426 31.1934L37.0216 33.6332Z" fill="#F4B46C"/>
<path fill-rule="evenodd" clip-rule="evenodd" d="M37.0045 33.8021L36.978 34.0548L13.199 31.6151L13.2255 31.3623L37.0045 33.8021Z" fill="#F5B46C"/>
<path fill-rule="evenodd" clip-rule="evenodd" d="M36.9866 33.97L36.9601 34.2228L13.181 31.783L13.2076 31.5303L36.9866 33.97Z" fill="#F5B46D"/>
<path fill-rule="evenodd" clip-rule="evenodd" d="M36.9697 34.1391L36.9432 34.3918L13.1642 31.952L13.1909 31.6992L36.9697 34.1391Z" fill="#F5B56D"/>
<path fill-rule="evenodd" clip-rule="evenodd" d="M36.9516 34.307L36.9249 34.5597L13.146 32.12L13.1725 31.8672L36.9516 34.307Z" fill="#F5B66D"/>
<path fill-rule="evenodd" clip-rule="evenodd" d="M36.934 34.4759L36.9074 34.7287L13.1284 32.2888L13.155 32.0361L36.934 34.4759Z" fill="#F5B66D"/>
<path fill-rule="evenodd" clip-rule="evenodd" d="M36.9162 34.6439L36.8896 34.8966L13.1106 32.4569L13.1371 32.2041L36.9162 34.6439Z" fill="#F5B76E"/>
<path fill-rule="evenodd" clip-rule="evenodd" d="M36.8985 34.8129L36.8719 35.0656L13.0929 32.6259L13.1194 32.373L36.8985 34.8129Z" fill="#F5B76E"/>
<path fill-rule="evenodd" clip-rule="evenodd" d="M36.8806 34.9807L36.8541 35.2336L13.0751 32.7937L13.1017 32.541L36.8806 34.9807Z" fill="#F5B76E"/>
<path fill-rule="evenodd" clip-rule="evenodd" d="M36.8629 35.1498L36.8363 35.4025L13.0574 32.9628L13.0839 32.71L36.8629 35.1498Z" fill="#F5B86F"/>
<path fill-rule="evenodd" clip-rule="evenodd" d="M36.8456 35.3178L36.8189 35.5705L13.04 33.1307L13.0666 32.8779L36.8456 35.3178Z" fill="#F5B86F"/>
<path fill-rule="evenodd" clip-rule="evenodd" d="M36.8277 35.4866L36.8011 35.7394L13.0221 33.2996L13.0486 33.0469L36.8277 35.4866Z" fill="#F5B96F"/>
<path fill-rule="evenodd" clip-rule="evenodd" d="M36.8101 35.6557L36.7835 35.9084L13.0045 33.4686L13.0311 33.2158L36.8101 35.6557Z" fill="#F5B96F"/>
<path fill-rule="evenodd" clip-rule="evenodd" d="M36.7915 35.8236L36.765 36.0763L12.986 33.6366L13.0125 33.3838L36.7915 35.8236Z" fill="#F6BA6F"/>
<path fill-rule="evenodd" clip-rule="evenodd" d="M36.7746 35.9925L36.748 36.2453L12.969 33.8054L12.9957 33.5527L36.7746 35.9925Z" fill="#F6BA6F"/>
<path fill-rule="evenodd" clip-rule="evenodd" d="M36.7563 36.1605L36.7296 36.4132L12.9507 33.9734L12.9772 33.7207L36.7563 36.1605Z" fill="#F6BA6F"/>
<path fill-rule="evenodd" clip-rule="evenodd" d="M36.7385 36.3295L36.712 36.5822L12.933 34.1425L12.9595 33.8896L36.7385 36.3295Z" fill="#F6BB70"/>
<path fill-rule="evenodd" clip-rule="evenodd" d="M36.7207 36.4973L36.6942 36.7502L12.9152 34.3103L12.9417 34.0576L36.7207 36.4973Z" fill="#F6BB70"/>
<path fill-rule="evenodd" clip-rule="evenodd" d="M36.7045 36.6664L36.6779 36.9191L12.8989 34.4793L12.9255 34.2266L36.7045 36.6664Z" fill="#F6BC71"/>
<path fill-rule="evenodd" clip-rule="evenodd" d="M36.6854 36.8344L36.6589 37.0871L12.8799 34.6473L12.9066 34.3945L36.6854 36.8344Z" fill="#F6BC71"/>
<path fill-rule="evenodd" clip-rule="evenodd" d="M36.6679 37.0032L36.6412 37.256L12.8623 34.8162L12.8889 34.5635L36.6679 37.0032Z" fill="#F6BD71"/>
<path fill-rule="evenodd" clip-rule="evenodd" d="M36.6502 37.1721L36.6235 37.425L12.8446 34.9851L12.8711 34.7324L36.6502 37.1721Z" fill="#F6BD71"/>
<path fill-rule="evenodd" clip-rule="evenodd" d="M36.6326 37.3402L36.606 37.5929L12.827 35.1532L12.8536 34.9004L36.6326 37.3402Z" fill="#F6BD71"/>
<path fill-rule="evenodd" clip-rule="evenodd" d="M36.6149 37.5091L36.5883 37.7619L12.8093 35.322L12.8359 35.0693L36.6149 37.5091Z" fill="#F5BD71"/>
<path fill-rule="evenodd" clip-rule="evenodd" d="M36.5978 37.677L36.5713 37.9298L12.7922 35.49L12.8189 35.2373L36.5978 37.677Z" fill="#F6BE72"/>
<path fill-rule="evenodd" clip-rule="evenodd" d="M36.5796 37.8461L36.5531 38.0988L12.774 35.6591L12.8007 35.4062L36.5796 37.8461Z" fill="#F6BF72"/>
<path fill-rule="evenodd" clip-rule="evenodd" d="M36.5611 38.0139L36.5344 38.2668L12.7555 35.8269L12.782 35.5742L36.5611 38.0139Z" fill="#F6BF72"/>
<path fill-rule="evenodd" clip-rule="evenodd" d="M36.5435 38.1829L36.5169 38.4357L12.7379 35.9959L12.7645 35.7432L36.5435 38.1829Z" fill="#F6BF73"/>
<path fill-rule="evenodd" clip-rule="evenodd" d="M36.5258 38.351L36.4992 38.6037L12.7202 36.164L12.7468 35.9111L36.5258 38.351Z" fill="#F6BF73"/>
<path fill-rule="evenodd" clip-rule="evenodd" d="M36.5087 38.5198L36.4821 38.7726L12.7031 36.3328L12.7297 36.0801L36.5087 38.5198Z" fill="#F6C073"/>
<path fill-rule="evenodd" clip-rule="evenodd" d="M36.491 38.6878L36.4644 38.9406L12.6854 36.5007L12.7121 36.248L36.491 38.6878Z" fill="#F6C073"/>
<path fill-rule="evenodd" clip-rule="evenodd" d="M36.4734 38.8568L36.4467 39.1095L12.6678 36.6698L12.6944 36.417L36.4734 38.8568Z" fill="#F6C173"/>
<path fill-rule="evenodd" clip-rule="evenodd" d="M36.4557 39.0257L36.4292 39.2785L12.6501 36.8386L12.6767 36.5859L36.4557 39.0257Z" fill="#F6C174"/>
<path fill-rule="evenodd" clip-rule="evenodd" d="M36.4372 39.1936L36.4106 39.4464L12.6316 37.0066L12.6581 36.7539L36.4372 39.1936Z" fill="#F6C274"/>
<path fill-rule="evenodd" clip-rule="evenodd" d="M36.4196 39.3627L36.393 39.6154L12.614 37.1757L12.6406 36.9229L36.4196 39.3627Z" fill="#F6C274"/>
<path fill-rule="evenodd" clip-rule="evenodd" d="M36.4026 39.5305L36.3761 39.7834L12.597 37.3435L12.6237 37.0908L36.4026 39.5305Z" fill="#F6C274"/>
<path fill-rule="evenodd" clip-rule="evenodd" d="M36.3848 39.6995L36.3582 39.9523L12.5792 37.5125L12.6059 37.2598L36.3848 39.6995Z" fill="#F6C274"/>
<path fill-rule="evenodd" clip-rule="evenodd" d="M36.3673 39.8676L36.3407 40.1203L12.5618 37.6806L12.5883 37.4277L36.3673 39.8676Z" fill="#F6C274"/>
<path fill-rule="evenodd" clip-rule="evenodd" d="M36.3498 40.0364L36.3232 40.2892L12.5442 37.8494L12.5707 37.5967L36.3498 40.0364Z" fill="#F7C374"/>
<path fill-rule="evenodd" clip-rule="evenodd" d="M36.3306 40.2044L36.304 40.4572L12.525 38.0173L12.5516 37.7646L36.3306 40.2044Z" fill="#F7C374"/>
<path fill-rule="evenodd" clip-rule="evenodd" d="M36.314 40.3734L36.2874 40.6261L12.5084 38.1864L12.535 37.9336L36.314 40.3734Z" fill="#F7C475"/>
<path fill-rule="evenodd" clip-rule="evenodd" d="M36.2958 40.5414L36.2693 40.7942L12.4902 38.3544L12.5169 38.1016L36.2958 40.5414Z" fill="#F7C475"/>
<path fill-rule="evenodd" clip-rule="evenodd" d="M36.279 40.7102L36.2523 40.963L12.4734 38.5232L12.4999 38.2705L36.279 40.7102Z" fill="#F7C576"/>
<path fill-rule="evenodd" clip-rule="evenodd" d="M36.2606 40.8793L36.2341 41.132L12.4551 38.6923L12.4816 38.4395L36.2606 40.8793Z" fill="#F7C576"/>
<path fill-rule="evenodd" clip-rule="evenodd" d="M36.2444 41.0473L36.2179 41.3L12.4388 38.8602L12.4654 38.6074L36.2444 41.0473Z" fill="#F7C576"/>
<path fill-rule="evenodd" clip-rule="evenodd" d="M36.2259 41.2161L36.1993 41.4689L12.4203 39.0291L12.4468 38.7764L36.2259 41.2161Z" fill="#F7C576"/>
<path fill-rule="evenodd" clip-rule="evenodd" d="M36.2072 41.3842L36.1806 41.6369L12.4016 39.1972L12.4283 38.9443L36.2072 41.3842Z" fill="#F7C676"/>
<path fill-rule="evenodd" clip-rule="evenodd" d="M36.1896 41.5531L36.1629 41.8058L12.384 39.3661L12.4106 39.1133L36.1896 41.5531Z" fill="#F7C676"/>
<path fill-rule="evenodd" clip-rule="evenodd" d="M36.1719 41.721L36.1452 41.9738L12.3663 39.5339L12.3929 39.2812L36.1719 41.721Z" fill="#F7C676"/>
<path fill-rule="evenodd" clip-rule="evenodd" d="M36.1543 41.89L36.1278 42.1427L12.3488 39.703L12.3753 39.4502L36.1543 41.89Z" fill="#F7C776"/>
<path fill-rule="evenodd" clip-rule="evenodd" d="M36.1375 42.058L36.1109 42.3107L12.3319 39.871L12.3585 39.6182L36.1375 42.058Z" fill="#F7C777"/>
<path fill-rule="evenodd" clip-rule="evenodd" d="M36.1195 42.2268L36.093 42.4796L12.314 40.0398L12.3405 39.7871L36.1195 42.2268Z" fill="#F7C777"/>
<path fill-rule="evenodd" clip-rule="evenodd" d="M36.1005 42.3949L36.0739 42.6476L12.2949 40.2079L12.3216 39.9551L36.1005 42.3949Z" fill="#F7C777"/>
<path fill-rule="evenodd" clip-rule="evenodd" d="M36.0828 42.5639L36.0561 42.8166L12.2772 40.3768L12.3038 40.124L36.0828 42.5639Z" fill="#F7C877"/>
<path fill-rule="evenodd" clip-rule="evenodd" d="M36.0655 42.7327L36.0389 42.9855L12.2599 40.5457L12.2864 40.293L36.0655 42.7327Z" fill="#F7C877"/>
<path fill-rule="evenodd" clip-rule="evenodd" d="M36.049 42.9008L36.0224 43.1535L12.2434 40.7138L12.27 40.4609L36.049 42.9008Z" fill="#F7C877"/>
<path fill-rule="evenodd" clip-rule="evenodd" d="M36.0307 43.0697L36.0041 43.3224L12.2251 40.8827L12.2516 40.6299L36.0307 43.0697Z" fill="#F8C977"/>
<path fill-rule="evenodd" clip-rule="evenodd" d="M36.0128 43.2376L35.9863 43.4904L12.2073 41.0505L12.2339 40.7979L36.0128 43.2376Z" fill="#F7C877"/>
<path fill-rule="evenodd" clip-rule="evenodd" d="M35.9954 43.4066L35.9687 43.6593L12.1898 41.2196L12.2164 40.9668L35.9954 43.4066Z" fill="#F7C978"/>
<path fill-rule="evenodd" clip-rule="evenodd" d="M35.9768 43.5746L35.9502 43.8273L12.1713 41.3876L12.1978 41.1348L35.9768 43.5746Z" fill="#F7C978"/>
<path fill-rule="evenodd" clip-rule="evenodd" d="M35.9591 43.7434L35.9326 43.9962L12.1536 41.5564L12.1801 41.3037L35.9591 43.7434Z" fill="#F7CA79"/>
<path fill-rule="evenodd" clip-rule="evenodd" d="M35.942 43.9115L35.9155 44.1642L12.1365 41.7245L12.163 41.4717L35.942 43.9115Z" fill="#F7CA79"/>
<path fill-rule="evenodd" clip-rule="evenodd" d="M35.9243 44.0805L35.8978 44.3332L12.1188 41.8934L12.1454 41.6406L35.9243 44.0805Z" fill="#F7CA79"/>
<path fill-rule="evenodd" clip-rule="evenodd" d="M35.9068 44.2493L35.8802 44.5021L12.1012 42.0623L12.1279 41.8096L35.9068 44.2493Z" fill="#F7CB79"/>
<path fill-rule="evenodd" clip-rule="evenodd" d="M35.8893 44.4174L35.8626 44.6701L12.0837 42.2302L12.1103 41.9775L35.8893 44.4174Z" fill="#F7CB79"/>
<path fill-rule="evenodd" clip-rule="evenodd" d="M35.8715 44.5863L35.8449 44.839L12.0659 42.3993L12.0925 42.1465L35.8715 44.5863Z" fill="#F7CB79"/>
<path fill-rule="evenodd" clip-rule="evenodd" d="M35.8539 44.7542L35.8274 45.007L12.0483 42.5671L12.0749 42.3145L35.8539 44.7542Z" fill="#F7CB79"/>
<path fill-rule="evenodd" clip-rule="evenodd" d="M35.8352 44.9232L35.8087 45.1759L12.0297 42.7361L12.0562 42.4834L35.8352 44.9232Z" fill="#F7CB79"/>
<path fill-rule="evenodd" clip-rule="evenodd" d="M35.8184 45.0912L35.7918 45.3439L12.0128 42.9042L12.0395 42.6514L35.8184 45.0912Z" fill="#F7CC79"/>
<path fill-rule="evenodd" clip-rule="evenodd" d="M35.8007 45.26L35.774 45.5129L11.9951 43.073L12.0217 42.8203L35.8007 45.26Z" fill="#F7CC79"/>
<path fill-rule="evenodd" clip-rule="evenodd" d="M35.7824 45.428L35.7558 45.6808L11.9768 43.241L12.0034 42.9883L35.7824 45.428Z" fill="#F7CC7A"/>
<path fill-rule="evenodd" clip-rule="evenodd" d="M35.7654 45.5971L35.7389 45.8498L11.9598 43.41L11.9864 43.1572L35.7654 45.5971Z" fill="#F8CD7A"/>
<path fill-rule="evenodd" clip-rule="evenodd" d="M35.7468 45.7649L35.7203 46.0177L11.9413 43.5779L11.9678 43.3252L35.7468 45.7649Z" fill="#F8CD7A"/>
<path fill-rule="evenodd" clip-rule="evenodd" d="M35.7293 45.9339L35.7027 46.1867L11.9237 43.7468L11.9504 43.4941L35.7293 45.9339Z" fill="#F8CD7A"/>
<path fill-rule="evenodd" clip-rule="evenodd" d="M35.7116 46.1029L35.685 46.3556L11.906 43.9159L11.9327 43.6631L35.7116 46.1029Z" fill="#F8CD7A"/>
<path fill-rule="evenodd" clip-rule="evenodd" d="M35.694 46.2717L35.6673 46.5246L11.8884 44.0847L11.915 43.832L35.694 46.2717Z" fill="#F8CD7A"/>
<path fill-rule="evenodd" clip-rule="evenodd" d="M35.6763 46.4397L35.6497 46.6925L11.8707 44.2527L11.8973 44L35.6763 46.4397Z" fill="#F8CE7B"/>
<path fill-rule="evenodd" clip-rule="evenodd" d="M35.6587 46.6078L35.6322 46.8605L11.8531 44.4208L11.8797 44.168L35.6587 46.6078Z" fill="#F8CE7B"/>
<path fill-rule="evenodd" clip-rule="evenodd" d="M35.6409 46.7766L35.6143 47.0295L11.8353 44.5896L11.8619 44.3369L35.6409 46.7766Z" fill="#F8CE7B"/>
<path fill-rule="evenodd" clip-rule="evenodd" d="M35.6225 46.9446L35.5959 47.1974L11.8169 44.7576L11.8436 44.5049L35.6225 46.9446Z" fill="#F8CF7B"/>
<path fill-rule="evenodd" clip-rule="evenodd" d="M35.6049 47.1137L35.5782 47.3664L11.7993 44.9266L11.8259 44.6738L35.6049 47.1137Z" fill="#F8CF7B"/>
<path fill-rule="evenodd" clip-rule="evenodd" d="M35.5872 47.2815L35.5606 47.5343L11.7816 45.0945L11.8082 44.8418L35.5872 47.2815Z" fill="#F8CF7C"/>
<path fill-rule="evenodd" clip-rule="evenodd" d="M35.5701 47.4505L35.5435 47.7033L11.7645 45.2634L11.7911 45.0107L35.5701 47.4505Z" fill="#F8CF7C"/>
<path fill-rule="evenodd" clip-rule="evenodd" d="M35.5524 47.6186L35.5258 47.8713L11.7468 45.4315L11.7734 45.1787L35.5524 47.6186Z" fill="#F8CF7C"/>
<path fill-rule="evenodd" clip-rule="evenodd" d="M35.5348 47.7874L35.5083 48.0402L11.7292 45.6004L11.7559 45.3477L35.5348 47.7874Z" fill="#F8D07C"/>
<path fill-rule="evenodd" clip-rule="evenodd" d="M35.5165 47.9563L35.4898 48.2091L11.7109 45.7693L11.7375 45.5166L35.5165 47.9563Z" fill="#F8D07C"/>
<path fill-rule="evenodd" clip-rule="evenodd" d="M35.4988 48.1244L35.4721 48.3771L11.6932 45.9374L11.7198 45.6846L35.4988 48.1244Z" fill="#F8D07C"/>
<path fill-rule="evenodd" clip-rule="evenodd" d="M35.481 48.2932L35.4544 48.5461L11.6754 46.1062L11.702 45.8535L35.481 48.2932Z" fill="#F8D17C"/>
<path fill-rule="evenodd" clip-rule="evenodd" d="M35.464 48.4612L35.4375 48.714L11.6584 46.2742L11.685 46.0215L35.464 48.4612Z" fill="#F8D17C"/>
<path fill-rule="evenodd" clip-rule="evenodd" d="M35.4457 48.6303L35.4192 48.883L11.6401 46.4432L11.6667 46.1904L35.4457 48.6303Z" fill="#F8D17C"/>
<path fill-rule="evenodd" clip-rule="evenodd" d="M35.428 48.7982L35.4015 49.0511L11.6224 46.6112L11.6491 46.3584L35.428 48.7982Z" fill="#F8D17C"/>
<path fill-rule="evenodd" clip-rule="evenodd" d="M35.4107 48.968L35.384 49.2209L11.6051 46.781L11.6316 46.5283L35.4107 48.968Z" fill="#F8D17C"/>
<path fill-rule="evenodd" clip-rule="evenodd" d="M35.3921 49.1351L35.3656 49.3878L11.5865 46.9481L11.6131 46.6953L35.3921 49.1351Z" fill="#F8D17C"/>
<path fill-rule="evenodd" clip-rule="evenodd" d="M35.3749 49.3041L35.3484 49.5568L11.5693 47.1171L11.5959 46.8643L35.3749 49.3041Z" fill="#F8D27D"/>
<path fill-rule="evenodd" clip-rule="evenodd" d="M35.3573 49.4729L35.3308 49.7257L11.5518 47.2859L11.5783 47.0332L35.3573 49.4729Z" fill="#F8D27D"/>
<path fill-rule="evenodd" clip-rule="evenodd" d="M35.3396 49.641L35.3131 49.8937L11.5341 47.454L11.5607 47.2012L35.3396 49.641Z" fill="#F8D27D"/>
<path fill-rule="evenodd" clip-rule="evenodd" d="M35.3211 49.81L35.2944 50.0627L11.5155 47.6229L11.542 47.3701L35.3211 49.81Z" fill="#F9D37E"/>
<path fill-rule="evenodd" clip-rule="evenodd" d="M35.3039 49.9778L35.2772 50.2306L11.4983 47.7908L11.5248 47.5381L35.3039 49.9778Z" fill="#F9D37E"/>
<path fill-rule="evenodd" clip-rule="evenodd" d="M35.2858 50.1469L35.2592 50.3996L11.4802 47.9599L11.5068 47.707L35.2858 50.1469Z" fill="#F9D37E"/>
<path fill-rule="evenodd" clip-rule="evenodd" d="M35.2682 50.3148L35.2417 50.5675L11.4626 48.1278L11.4892 47.875L35.2682 50.3148Z" fill="#F9D37E"/>
<path fill-rule="evenodd" clip-rule="evenodd" d="M35.2503 50.4837L35.2237 50.7365L11.4447 48.2966L11.4714 48.0439L35.2503 50.4837Z" fill="#F9D37E"/>
<path fill-rule="evenodd" clip-rule="evenodd" d="M35.2329 50.6518L35.2064 50.9045L11.4274 48.4647L11.454 48.2119L35.2329 50.6518Z" fill="#F8D37E"/>
<path fill-rule="evenodd" clip-rule="evenodd" d="M35.2152 50.8207L35.1886 51.0734L11.4097 48.6337L11.4362 48.3809L35.2152 50.8207Z" fill="#F8D37E"/>
<path fill-rule="evenodd" clip-rule="evenodd" d="M35.1977 50.9885L35.1711 51.2414L11.3921 48.8015L11.4186 48.5488L35.1977 50.9885Z" fill="#F8D47E"/>
<path fill-rule="evenodd" clip-rule="evenodd" d="M35.1804 51.1576L35.1539 51.4103L11.3749 48.9706L11.4014 48.7178L35.1804 51.1576Z" fill="#F8D47E"/>
<path fill-rule="evenodd" clip-rule="evenodd" d="M35.1619 51.3256L35.1353 51.5783L11.3563 49.1386L11.3829 48.8857L35.1619 51.3256Z" fill="#F8D47E"/>
<path fill-rule="evenodd" clip-rule="evenodd" d="M35.1444 51.4944L35.1179 51.7472L11.3389 49.3074L11.3655 49.0547L35.1444 51.4944Z" fill="#F8D57E"/>
<path fill-rule="evenodd" clip-rule="evenodd" d="M35.1261 51.6635L35.0995 51.9162L11.3206 49.4765L11.3471 49.2236L35.1261 51.6635Z" fill="#F8D57F"/>
<path fill-rule="evenodd" clip-rule="evenodd" d="M35.1085 51.8324L35.082 52.0851L11.303 49.6454L11.3295 49.3926L35.1085 51.8324Z" fill="#F8D57F"/>
<path fill-rule="evenodd" clip-rule="evenodd" d="M35.0906 52.0003L35.0641 52.2531L11.285 49.8132L11.3116 49.5605L35.0906 52.0003Z" fill="#F8D57F"/>
<path fill-rule="evenodd" clip-rule="evenodd" d="M35.0745 52.1684L35.0479 52.4211L11.2689 49.9813L11.2955 49.7285L35.0745 52.1684Z" fill="#F8D57F"/>
<path fill-rule="evenodd" clip-rule="evenodd" d="M35.0561 52.3373L35.0295 52.59L11.2505 50.1503L11.2772 49.8975L35.0561 52.3373Z" fill="#F8D57F"/>
<path fill-rule="evenodd" clip-rule="evenodd" d="M35.0375 52.5051L35.011 52.758L11.2319 50.3181L11.2586 50.0654L35.0375 52.5051Z" fill="#F8D57F"/>
<path fill-rule="evenodd" clip-rule="evenodd" d="M35.02 52.6742L34.9934 52.9269L11.2145 50.4871L11.241 50.2344L35.02 52.6742Z" fill="#F8D67F"/>
<path fill-rule="evenodd" clip-rule="evenodd" d="M35.0022 52.8422L34.9757 53.0949L11.1967 50.6552L11.2232 50.4023L35.0022 52.8422Z" fill="#F8D67F"/>
<path fill-rule="evenodd" clip-rule="evenodd" d="M34.9854 53.011L34.9588 53.2638L11.1798 50.824L11.2064 50.5713L34.9854 53.011Z" fill="#F8D67F"/>
<path fill-rule="evenodd" clip-rule="evenodd" d="M34.9677 53.1801L34.9411 53.4328L11.1621 50.9929L11.1887 50.7402L34.9677 53.1801Z" fill="#F9D77F"/>
<path fill-rule="evenodd" clip-rule="evenodd" d="M34.9501 53.348L34.9236 53.6007L11.1445 51.161L11.1712 50.9082L34.9501 53.348Z" fill="#F9D77F"/>
<path fill-rule="evenodd" clip-rule="evenodd" d="M34.9324 53.5169L34.9057 53.7697L11.1268 51.3298L11.1534 51.0771L34.9324 53.5169Z" fill="#F9D77F"/>
<path fill-rule="evenodd" clip-rule="evenodd" d="M34.9134 53.6848L34.8868 53.9377L11.1078 51.4978L11.1343 51.2451L34.9134 53.6848Z" fill="#F9D780"/>
<path fill-rule="evenodd" clip-rule="evenodd" d="M34.8953 53.8539L34.8687 54.1066L11.0897 51.6669L11.1163 51.4141L34.8953 53.8539Z" fill="#F9D780"/>
<path fill-rule="evenodd" clip-rule="evenodd" d="M34.8791 54.0217L34.8525 54.2746L11.0735 51.8347L11.1 51.582L34.8791 54.0217Z" fill="#F9D781"/>
<path fill-rule="evenodd" clip-rule="evenodd" d="M34.8607 54.1907L34.8342 54.4435L11.0552 52.0037L11.0818 51.751L34.8607 54.1907Z" fill="#F9D781"/>
<path fill-rule="evenodd" clip-rule="evenodd" d="M34.8433 54.3588L34.8166 54.6115L11.0377 52.1718L11.0643 51.9189L34.8433 54.3588Z" fill="#F9D881"/>
<path fill-rule="evenodd" clip-rule="evenodd" d="M34.8257 54.5276L34.799 54.7804L11.0201 52.3406L11.0467 52.0879L34.8257 54.5276Z" fill="#F9D881"/>
<path fill-rule="evenodd" clip-rule="evenodd" d="M34.8078 54.6956L34.7812 54.9484L11.0022 52.5086L11.0287 52.2559L34.8078 54.6956Z" fill="#F9D881"/>
<path fill-rule="evenodd" clip-rule="evenodd" d="M34.7899 54.8646L34.7634 55.1173L10.9844 52.6776L11.0109 52.4248L34.7899 54.8646Z" fill="#F9D881"/>
<path fill-rule="evenodd" clip-rule="evenodd" d="M34.7722 55.0335L34.7457 55.2863L10.9667 52.8464L10.9932 52.5938L34.7722 55.0335Z" fill="#F9D981"/>
<path fill-rule="evenodd" clip-rule="evenodd" d="M34.7548 55.2014L34.738 55.3613L10.959 52.9215L10.9759 52.7617L34.7548 55.2014Z" fill="#F9D981"/>
</g>
<path fill-rule="evenodd" clip-rule="evenodd" d="M22.6985 52.573L22.0645 51.726L18.0326 48.0246L14.9332 43.2994L13.5561 37.4068L13.5861 35.3062L13.0498 33.2284L13.6233 29.6181V27.5841L14.0726 26.5696L14.1055 26.5811L14.6462 23.1777L18.1564 16.1975L23.8744 10.0613L25.4642 8.94727L31.0139 13.6848L35.765 22.0224L37.2997 29.9057L36.7569 36.1627L35.1269 41.6669L32.5007 47.6688L28.2251 52.3793L27.2869 52.6488L27.2433 52.8356L25.9616 54.2752L24.9282 54.3551L23.2068 52.7749L22.6985 52.573Z" stroke="#2B2A29" stroke-width="0.288" stroke-miterlimit="22.9256"/>
<path fill-rule="evenodd" clip-rule="evenodd" d="M33.5961 27.6196L33.2652 27.7353L28.4563 31.7764L26.087 35.2829L25.8038 36.2415L23.911 40.8492L22.84 44.7927L22.6808 45.2247L22.676 45.3972L22.4115 46.3711L22.5753 49.0255L22.5711 49.1717L22.589 49.2477L22.7522 51.8929L23.4277 52.8322L23.4286 52.836L23.4381 52.8465L24.5927 54.452L26.4333 54.9906L36.5216 52.297L43.6789 46.9099L48.1098 39.1658L49.5413 32.4991L48.9958 25.2265L48.5187 23.6104L42.1112 23.8796L34.2721 27.0448L33.5961 27.6196Z" fill="url(#paint1_linear_17191_41617)"/>
<path d="M26.0152 38.9336H24.5957C23.967 38.9336 23.4573 39.4684 23.4573 40.1282V53.0871C23.4573 53.7468 23.967 54.2817 24.5957 54.2817H26.0152C26.644 54.2817 27.1537 53.7468 27.1537 53.0871V40.1282C27.1537 39.4684 26.644 38.9336 26.0152 38.9336Z" fill="#F8D07C"/>
<path d="M2.26087 36.3329C2.11285 36.424 1.94207 36.4604 1.77692 36.4444C1.57997 36.4252 1.38999 36.332 1.25444 36.169C1.11878 36.0061 1.06275 35.8038 1.08208 35.6092C1.10153 35.4145 1.19597 35.2268 1.36087 35.0929C1.43011 35.0368 1.48443 34.9856 1.53189 34.9407C1.64774 34.8311 1.73093 34.7524 1.91076 34.6935L1.89546 34.6069C1.31842 31.2683 1.45421 27.7593 2.41684 24.2909L2.43984 24.2082L2.5267 24.2067C3.78268 24.1842 5.03511 24.2601 6.27336 24.431C7.51686 24.6026 8.74654 24.8699 9.95151 25.2294L10.1001 25.2415L10.0883 25.2706C10.5799 25.4205 11.0651 25.5851 11.5431 25.7637C12.0093 25.938 12.4681 26.1258 12.9184 26.326C13.0432 25.9129 13.2618 25.5204 13.66 25.1577C13.8171 25.0149 14.0186 24.9483 14.2167 24.9564C14.4136 24.9645 14.6076 25.0462 14.7519 25.1992L14.7768 25.2269C15.1788 23.6414 15.7226 22.1 16.4001 20.6185C17.1185 19.0476 17.9876 17.5432 18.998 16.124L18.9967 16.1231L19.066 16.0264C19.9139 14.8448 20.8452 13.742 21.857 12.7183C22.8758 11.6877 23.9753 10.7376 25.1531 9.86781L25.2221 9.81693L25.2916 9.86781C27.9751 11.8379 30.199 14.2014 31.9396 16.8195C33.743 19.5327 35.0277 22.5194 35.7666 25.6254L35.7872 25.712L35.7067 25.7532C34.6634 26.2879 33.7659 26.826 32.916 27.429C32.0658 28.0323 31.2619 28.7017 30.406 29.4989L30.3208 29.5783L30.0063 29.2416C29.7777 29.0512 28.6344 27.7855 27.6309 26.5839C26.9174 25.7294 26.2684 24.9029 26.0592 24.5118C25.9996 24.4003 25.9489 24.069 25.8997 23.7474C25.8582 23.4753 25.8175 23.2099 25.7831 23.1272L25.7743 23.1064C25.7766 22.5384 25.7761 21.9703 25.7769 21.4023L25.9753 21.604C26.0476 21.6775 26.1211 21.7495 26.1957 21.8202C26.2679 21.8885 26.3461 21.9607 26.4285 22.0353C26.7786 22.3525 27.114 22.6541 27.4703 22.9353C27.8218 23.2125 28.191 23.4669 28.6098 23.6906C28.7417 23.7606 28.8903 23.7714 29.0236 23.7317C29.1564 23.6923 29.2743 23.6025 29.3454 23.4721C29.4164 23.3417 29.4271 23.1949 29.387 23.0633C29.3471 22.9321 29.2562 22.8156 29.1244 22.7455C28.7493 22.5451 28.4112 22.309 28.0896 22.0526C27.769 21.7974 27.4666 21.5238 27.1592 21.2455C26.8572 20.9724 26.5971 20.7126 26.3718 20.4268C26.1444 20.1384 25.9524 19.8243 25.7889 19.4453L25.7797 19.4241C25.7823 18.7673 25.7818 18.1105 25.7826 17.4537L27.1887 19.0566C27.2864 19.1684 27.421 19.2304 27.5596 19.2402C27.6985 19.2501 27.8411 19.2079 27.9543 19.1114C28.0673 19.0148 28.13 18.8818 28.1401 18.745C28.15 18.6078 28.1072 18.4666 28.0096 18.3551L26.8418 17.0232C26.6951 16.8556 26.575 16.7092 26.4727 16.5717C26.3701 16.4336 26.2838 16.3019 26.2052 16.1641C26.1249 16.024 26.0515 15.8753 25.9758 15.7052C25.9122 15.5625 25.8457 15.4018 25.7714 15.2166L25.7703 15.2169L25.7331 15.1229C25.6766 14.9802 25.5716 14.8818 25.4494 14.8292C25.3822 14.8003 25.3094 14.7848 25.237 14.7834C25.1646 14.7819 25.0914 14.7944 25.0232 14.8207C24.9006 14.868 24.7928 14.9621 24.7303 15.1038C24.568 15.4721 24.4196 15.7846 24.2715 16.0639C24.1226 16.3445 23.9744 16.5896 23.8132 16.8218C23.652 17.0538 23.4731 17.2786 23.2629 17.5176C23.0534 17.7561 22.8141 18.0075 22.5303 18.2949C22.4258 18.4013 22.3747 18.5395 22.3767 18.6767C22.3786 18.8136 22.4337 18.9502 22.5412 19.0535L22.5427 19.0543C22.6499 19.1572 22.7892 19.2073 22.9273 19.2054C23.0657 19.2035 23.2039 19.1492 23.3083 19.0432L23.3093 19.0418C23.559 18.7892 23.776 18.5627 23.9682 18.35C24.1621 18.1355 24.3334 17.9325 24.4901 17.7284L24.6984 17.4568C24.6977 18.0941 24.6978 18.7314 24.6955 19.3687L24.6852 19.3908C24.3496 20.1082 23.8382 20.7455 23.2522 21.3158C22.6706 21.8816 22.0153 22.3818 21.3865 22.8281C21.2651 22.9144 21.1905 23.0414 21.1681 23.1765C21.146 23.3119 21.1758 23.4558 21.2632 23.5758L21.2671 23.5813C21.3543 23.6978 21.4812 23.7698 21.616 23.7913C21.7529 23.8133 21.8986 23.7838 22.0199 23.6975L22.0508 23.6756C22.4819 23.3688 22.9088 23.0482 23.3174 22.7057C23.7338 22.3564 24.13 21.9854 24.4897 21.5851L24.6926 21.3591C24.6918 21.9433 24.6934 22.5278 24.6899 23.1119L24.6859 23.1264C24.6644 23.2041 24.6362 23.3591 24.6032 23.5422C24.5238 23.981 24.4158 24.5765 24.2688 24.7813C24.1398 24.9609 23.9727 25.2063 23.7815 25.4872C22.8539 26.8506 21.3548 29.0536 20.2635 29.4938L20.1946 29.5216L20.1405 29.471C19.2892 28.6747 18.4602 28.0114 17.5834 27.4134C16.7658 26.8558 15.9061 26.355 14.9476 25.856C14.9189 26.0138 14.8404 26.1641 14.7132 26.2812L14.7095 26.2846C14.5284 26.4495 14.4301 26.6687 14.3733 26.9188C14.3306 27.1062 14.3108 27.3127 14.2974 27.5275L14.383 27.036L14.5247 27.1118C15.3824 27.5715 16.2175 28.0867 17.0185 28.6509C17.8121 29.2098 18.5711 29.8164 19.2848 30.4643L19.2878 30.4669L19.1316 30.6364C19.01 30.5286 18.8364 30.5197 18.7138 30.5614C18.659 30.5799 18.6189 30.6058 18.6072 30.6326C18.6022 30.6441 18.6123 30.6636 18.6437 30.6905C18.7767 30.804 19.1334 30.9155 19.8679 30.9601L19.9131 30.963L19.9442 30.9942C20.7959 31.8544 21.6537 32.8723 22.4361 33.9404C23.2127 35 23.9157 36.1105 24.4663 37.1666L24.4928 37.2174L24.4682 37.2684C23.4348 39.4087 22.7041 41.6945 22.3126 44.0581C21.9299 46.3674 21.8704 48.7527 22.1678 51.151L22.2091 51.4839L21.9704 51.2456C18.8643 48.1441 16.5771 44.2697 15.2582 40.1036C14.1577 36.6276 13.7308 32.9477 14.0636 29.3439C14.0127 29.5059 13.9488 29.6693 13.868 29.834C13.7074 30.1624 13.5875 30.3953 13.4207 30.5739C13.2541 30.7524 13.0486 30.8702 12.7253 30.9627C12.6971 33.4096 12.9457 35.6487 13.1403 37.0042C13.2002 37.4216 13.2556 37.7579 13.2958 37.9896C13.3115 38.0801 13.1595 38.2892 13.1647 38.2841L13.3131 38.1375L13.3599 38.3403C14.0254 41.2199 15.1381 44.0041 16.6787 46.5813C18.1765 49.0874 20.0791 51.3983 22.3681 53.4115C22.4817 53.5114 22.8309 53.7743 23.0891 53.9687C23.2781 54.111 23.4239 54.2195 23.4349 54.266L23.4735 54.4272L23.307 54.4054C22.6212 54.3157 21.7321 54.1668 20.8583 53.9893C20.0994 53.8353 19.3522 53.6599 18.7584 53.4829L18.6364 53.4731L18.6414 53.4476C16.3186 52.7421 14.1055 51.685 12.0929 50.336C10.053 48.9685 8.21966 47.3015 6.68733 45.3971L6.63571 45.333L6.6806 45.2639C6.70189 45.2309 6.71106 45.1912 6.72011 45.1501C6.72953 45.1083 6.73944 45.065 6.75975 45.0161L6.7611 45.0126C6.78593 44.9583 6.8077 44.92 6.82642 44.8936C6.8263 44.864 6.82728 44.8258 6.82972 44.777C6.76636 44.6909 6.81847 44.5612 6.87266 44.4263C6.90642 44.3423 6.94606 44.2577 6.94398 44.2559C6.92722 44.2408 6.88808 44.2478 6.84489 44.2558C6.72941 44.2769 6.59949 44.3006 6.45649 44.1844C6.46309 44.3488 6.45612 44.4292 6.40731 44.4739C6.31568 44.5577 6.25525 44.5073 6.15249 44.4198C6.09671 44.3724 6.01462 44.3026 5.89963 44.2417L5.87468 44.2285L5.85878 44.2058C4.19298 41.8248 2.96941 39.1553 2.26087 36.3329ZM1.79943 36.2166C1.90268 36.2265 2.00886 36.2075 2.10416 36.1581C2.02146 35.9546 1.94452 35.7418 1.89754 35.5249C1.85791 35.3429 1.83894 35.1575 1.85375 34.9715C1.79576 35.008 1.74891 35.0522 1.69251 35.1056C1.64236 35.153 1.58511 35.207 1.50804 35.2696C1.39243 35.3635 1.32601 35.495 1.31267 35.6312C1.29922 35.768 1.33836 35.9097 1.43329 36.0237C1.52834 36.1379 1.66132 36.2034 1.79943 36.2166ZM2.13511 34.6305L2.1542 34.6251L2.14294 34.6747C2.74298 38.0536 4.08031 41.2545 6.03395 44.0535C6.11604 44.0993 6.18161 44.1468 6.23372 44.1884C6.22712 44.1502 6.22039 44.0999 6.21672 44.0339L6.17561 43.2694L6.42395 43.7545C6.58543 44.07 6.7036 44.0489 6.80232 44.0306C6.90508 44.0117 6.99744 43.9948 7.09971 44.0864C7.21654 44.1908 7.15048 44.3546 7.08784 44.5107C7.06044 44.5786 6.96894 44.6101 7.0016 44.6268L7.06876 44.6611L7.05824 44.8614C7.06754 44.8901 7.0706 44.9249 7.06913 44.9579L7.06729 44.9918C7.08809 45.1784 7.05506 45.2567 7.00821 45.2653C6.98301 45.315 6.95279 45.3315 6.92196 45.2921L6.91487 45.3113C8.42395 47.1748 10.2235 48.8065 12.2227 50.1467C14.2438 51.5016 16.4706 52.5593 18.8096 53.2585L18.814 53.2597C19.4069 53.437 20.1512 53.6121 20.9045 53.765C21.5998 53.9063 22.3036 54.0292 22.9051 54.1182C22.6482 53.9248 22.3247 53.6805 22.2137 53.583C19.9068 51.5537 17.989 49.2244 16.479 46.698C14.9265 44.1006 13.8048 41.2939 13.1339 38.3905L13.2146 38.3724C13.1593 38.3125 13.0984 38.2076 13.0672 38.0281C13.0272 37.7982 12.9718 37.4614 12.9107 37.0356C12.7168 35.6852 12.4698 33.4626 12.493 31.0267L12.4889 31.0278L12.493 31.0152C12.4987 30.4302 12.5201 29.8331 12.5615 29.2328L12.5379 29.1972L12.5651 29.1823C12.6066 28.5957 12.6674 28.0064 12.7516 27.4228C12.7696 27.1263 12.7963 26.8354 12.8597 26.5509C12.4034 26.347 11.937 26.1557 11.4615 25.9781C10.9555 25.7891 10.4372 25.6146 9.9076 25.456L9.86331 25.4428C8.67449 25.0892 7.46389 24.8265 6.24155 24.6578C5.04245 24.4923 3.83112 24.4167 2.61746 24.4339C1.68493 27.8415 1.55722 31.2876 2.1241 34.5683L2.13511 34.6305ZM12.8107 29.006C12.9228 28.864 12.9028 28.6861 12.8568 28.4846C12.8395 28.6584 12.8242 28.8323 12.8107 29.006ZM13.0526 28.3094C13.1482 28.6933 13.2296 29.0223 12.8578 29.2781C12.9384 29.4524 12.9658 29.6674 12.9604 29.8908C12.9539 30.1619 12.8998 30.4478 12.8371 30.6846C13.0174 30.6156 13.1449 30.5313 13.25 30.4187C13.3955 30.2627 13.5078 30.0442 13.6592 29.7345C13.9863 29.0681 14.0198 28.4083 14.0517 27.776L14.0518 27.772C14.0677 27.4562 14.0835 27.1486 14.1471 26.8686C14.2133 26.5777 14.3304 26.3198 14.5489 26.1191L14.5525 26.1158C14.6626 26.0157 14.7217 25.8806 14.7275 25.7437V25.7424L14.6592 25.7075L14.698 25.5452C14.6749 25.4791 14.6382 25.4165 14.5879 25.3615L14.5845 25.3579C14.4829 25.249 14.3462 25.1907 14.2076 25.1852C14.0686 25.1795 13.9272 25.2262 13.8171 25.3263C13.444 25.6662 13.2436 26.0344 13.1314 26.422L13.1551 26.4328L13.1384 26.5203C13.0792 26.8267 13.0273 27.1358 12.9824 27.4469L12.9676 27.7242C12.9575 27.9261 13.0069 28.1253 13.0526 28.3094ZM14.9379 25.5402L14.9498 25.5987C15.9586 26.1197 16.859 26.6412 17.7151 27.2251C18.5803 27.8152 19.401 28.47 20.2433 29.2529C21.2649 28.7754 22.6961 26.6725 23.5891 25.3599C23.778 25.0825 23.943 24.8402 24.0799 24.649C24.1971 24.4852 24.2997 23.919 24.3752 23.5017C24.4072 23.3245 24.4348 23.1729 24.4585 23.0815L24.4603 21.9557C24.148 22.283 23.8141 22.5898 23.4672 22.8806C23.0457 23.2339 22.603 23.5656 22.1554 23.8833L22.1244 23.9053H22.1227C21.9563 24.0114 21.7621 24.0468 21.5788 24.0173C21.3833 23.9859 21.1998 23.8806 21.0752 23.7096L21.053 23.6792V23.6772C20.9454 23.5127 20.9098 23.3208 20.9395 23.1398C20.9713 22.9467 21.0779 22.7656 21.2512 22.6425C21.8717 22.202 22.5178 21.7091 23.0897 21.1525C23.6514 20.6059 24.1414 19.9976 24.4641 19.3168L24.466 18.1275C24.3639 18.2508 24.2562 18.3749 24.1408 18.5025C23.9424 18.7221 23.7235 18.9507 23.4749 19.2024L23.474 19.2038C23.3245 19.3543 23.1278 19.4314 22.9301 19.4342C22.7323 19.4368 22.533 19.3649 22.3801 19.218L22.3786 19.2171C22.2261 19.0696 22.148 18.8749 22.1452 18.6795C22.1424 18.4837 22.2153 18.2867 22.3642 18.1354C22.6466 17.8491 22.8835 17.6003 23.0879 17.3679C23.2915 17.1362 23.4649 16.9182 23.6216 16.6926C23.7791 16.4662 23.9227 16.2286 24.0662 15.958C24.2105 15.6863 24.3565 15.3781 24.5178 15.0124C24.6069 14.8101 24.7618 14.6755 24.9388 14.6073C25.0352 14.5701 25.1387 14.5526 25.2415 14.5547C25.3445 14.5568 25.4473 14.5785 25.542 14.6193C25.6899 14.6828 25.8199 14.7926 25.9054 14.947L25.9124 14.9454L25.9498 15.0392C26.0372 15.2587 26.1138 15.4455 26.1883 15.6129C26.2613 15.7768 26.3315 15.9194 26.4072 16.0521C26.4792 16.1788 26.5606 16.3031 26.6597 16.4364C26.7594 16.5705 26.8757 16.7121 27.0168 16.8735L28.1846 18.2054C28.3244 18.3653 28.3856 18.5661 28.3715 18.7612C28.3573 18.9563 28.2675 19.1462 28.1057 19.2844C27.9439 19.4225 27.7405 19.483 27.5432 19.469C27.3457 19.4548 27.1535 19.3661 27.0135 19.2064L26.0132 18.0659L26.0113 19.3768C26.1647 19.7274 26.3434 20.0186 26.5542 20.286C26.7711 20.5611 27.0229 20.8122 27.3159 21.0768C27.6218 21.3534 27.9221 21.6251 28.2348 21.8741C28.5462 22.1222 28.8728 22.3506 29.2342 22.5436C29.4226 22.6436 29.5524 22.81 29.6094 22.9979C29.6665 23.1854 29.651 23.3945 29.5497 23.5807C29.4483 23.7668 29.2798 23.895 29.0897 23.9514C28.9001 24.0077 28.6882 23.9925 28.4999 23.8924C28.0673 23.6615 27.6872 23.3996 27.3261 23.1148C26.9701 22.8339 26.6288 22.5267 26.2719 22.2041C26.194 22.1338 26.1156 22.0615 26.0351 21.9852L26.0076 21.959L26.0059 23.0631C26.0487 23.1857 26.0886 23.4464 26.1293 23.7132C26.1757 24.0162 26.2235 24.3284 26.2645 24.4051C26.466 24.7818 27.1052 25.5947 27.8098 26.4386C28.8577 27.6935 30.0383 29.0083 30.142 29.0599L30.1608 29.0692L30.3326 29.253C31.1635 28.484 31.9496 27.833 32.7807 27.2433C33.6184 26.6489 34.501 26.1174 35.5199 25.5911C34.7836 22.541 33.5172 19.6094 31.7462 16.9451C30.0355 14.3716 27.8533 12.0464 25.2229 10.1029C24.0795 10.9524 23.012 11.8775 22.0232 12.8779C21.0473 13.8653 20.1468 14.9271 19.3243 16.0629L19.3252 16.0635L19.256 16.16C18.2254 17.5946 17.3405 19.1189 16.6116 20.7128C15.9032 22.2621 15.3422 23.8773 14.9379 25.5402ZM29.1656 30.3487C28.7181 30.0185 27.932 29.0271 27.169 28.0649C26.7523 27.5396 26.3424 27.0226 26.0018 26.6307L25.9941 34.1319C26.3513 33.6101 26.7745 33.0624 27.2212 32.523C27.8599 31.7514 28.5501 30.993 29.1656 30.3487ZM27.3513 27.9241C28.178 28.9665 29.0322 30.0438 29.3974 30.2251L29.5369 30.2944L29.4296 30.4061C28.7968 31.0648 28.0728 31.8568 27.4009 32.6682C26.8665 33.3138 26.3669 33.9699 25.976 34.5772L25.7617 34.9101L25.771 26.0327L25.9722 26.251C26.3464 26.6568 26.844 27.2842 27.3513 27.9241ZM24.4743 26.6767C24.2159 26.9871 23.9124 27.4203 23.5882 27.8833C22.8945 28.8741 22.1063 29.9996 21.4132 30.4109C21.9882 31.0167 22.6103 31.7187 23.1941 32.4379C23.6471 32.9958 24.0782 33.5652 24.4479 34.1096L24.4743 26.6767ZM23.3978 27.7532C23.8158 27.156 24.1999 26.6077 24.508 26.2934L24.7078 26.0896L24.6766 34.881L24.4646 34.5524C24.0587 33.9234 23.5523 33.245 23.0134 32.5813C22.3974 31.8226 21.7398 31.0841 21.141 30.4593L21.0298 30.3434L21.1763 30.2765C21.8448 29.9711 22.6738 28.7871 23.3978 27.7532ZM37.6091 50.5556C37.6083 50.4945 37.6149 50.4359 37.6284 50.3794C37.6469 50.3017 37.6782 50.2273 37.721 50.1551C38.5837 48.5475 39.3067 46.1826 39.5152 43.916C39.6881 42.038 39.5081 40.2309 38.7612 38.9881C38.661 38.8204 38.6337 38.6447 38.6603 38.4822C38.6842 38.3355 38.7521 38.2004 38.8494 38.0924C38.9464 37.9846 39.0741 37.9023 39.218 37.8611C39.3506 37.8232 39.4963 37.8199 39.6438 37.8631L39.6479 37.8563L39.7412 37.897C40.5214 38.2389 41.2839 38.5025 42.0637 38.6724C42.8429 38.8422 43.6419 38.9195 44.496 38.8891C44.9602 38.8726 45.4594 38.7959 45.9557 38.692C46.4335 38.5919 46.908 38.4666 47.3472 38.3449C47.8804 36.8264 48.2595 35.2504 48.4713 33.6405C48.6745 32.0957 48.7242 30.5178 48.6087 28.9279C47.9773 29.2329 47.3405 29.5355 46.7102 29.8236C46.0228 30.138 45.3308 30.4413 44.6429 30.722C43.8835 31.0319 43.1358 31.3111 42.4145 31.5426C41.6904 31.775 40.9892 31.9608 40.3242 32.0833C39.9266 32.1565 39.5302 32.2189 39.1339 32.2698C38.7712 32.3165 38.4118 32.3536 38.0551 32.3807C37.8853 36.9934 36.9052 40.9201 35.2356 44.3753C33.5536 47.8564 31.1721 50.8589 28.2146 53.6032C28.0557 53.7503 27.6811 53.988 27.3795 54.1766C29.0195 53.9228 30.8689 53.4559 32.6525 52.8394C34.4717 52.2107 36.2212 51.4268 37.6091 50.5556ZM37.8545 50.4313C37.8414 50.4866 37.8375 50.5442 37.8437 50.605L37.8507 50.6749L37.7911 50.7127C36.3793 51.6078 34.5894 52.4126 32.7288 53.0556C30.7451 53.7411 28.6787 54.2434 26.9032 54.476L26.734 54.4982L26.7756 54.3347C26.7912 54.273 26.9641 54.1655 27.1891 54.0248C27.4917 53.8356 27.9012 53.5795 28.0558 53.4364C30.9925 50.7115 33.3568 47.731 35.0259 44.2767C36.6949 40.8226 37.6697 36.8932 37.8274 32.2705L37.8308 32.1672L37.935 32.1597C38.3268 32.1319 38.7162 32.0928 39.1041 32.0429C39.4937 31.9929 39.8863 31.9312 40.2824 31.8582C40.9349 31.7379 41.6263 31.5545 42.3427 31.3246C43.0619 31.0937 43.8037 30.8169 44.5548 30.5106C45.2339 30.2333 45.9237 29.9308 46.6132 29.6155C47.3086 29.2976 47.9926 28.9719 48.6608 28.648L48.8139 28.5738L48.8274 28.7417C48.9599 30.4022 48.9136 32.0526 48.7009 33.6691C48.4843 35.3163 48.0949 36.9271 47.5461 38.4766L47.526 38.5331L47.468 38.5493C47.0079 38.6774 46.5074 38.8109 46.0039 38.9163C45.4973 39.0224 44.9854 39.1007 44.5041 39.1177C43.6301 39.1488 42.8118 39.0698 42.0136 38.8957C41.2471 38.7288 40.5004 38.4748 39.7412 38.1476L39.6476 38.1079C39.5206 38.053 39.3941 38.0488 39.2826 38.0808C39.182 38.1096 39.092 38.1681 39.0229 38.245C38.9536 38.3217 38.9055 38.4164 38.8889 38.518C38.8707 38.6303 38.8901 38.7531 38.9608 38.8714C39.7347 40.1589 39.9227 42.0146 39.7458 43.9365C39.5342 46.2348 38.8005 48.6339 37.9249 50.2645L37.9221 50.2694C37.8905 50.3222 37.8676 50.3761 37.8545 50.4313ZM32.5668 45.5917C32.7981 42.9029 32.7482 40.0743 32.2792 37.5099C31.8827 35.3419 31.1865 33.3627 30.1079 31.8183C29.3449 32.6148 28.6407 33.4611 27.9992 34.3497C27.3383 35.265 26.7444 36.2249 26.2218 37.2214C27.2511 39.3655 27.9798 41.655 28.372 44.0233C28.7402 46.2474 28.8118 48.5404 28.557 50.8467C28.9944 50.3973 29.4197 49.9296 29.831 49.4442C30.3109 48.8781 30.77 48.2906 31.2058 47.6827L31.2768 47.5839L31.2776 47.5846C31.4997 47.2718 31.7139 46.9562 31.9201 46.6385C32.1449 46.2922 32.3605 45.9431 32.5668 45.5917ZM32.5072 37.4696C32.9819 40.0645 33.0313 42.9232 32.7962 45.6359L32.7938 45.6613L32.7807 45.6839C32.5678 46.0478 32.3459 46.4073 32.1154 46.7623C31.8855 47.1164 31.6467 47.4665 31.3994 47.812L31.3841 47.8296C30.9442 48.442 30.4851 49.0296 30.0089 49.5914C29.5208 50.1673 29.0122 50.7197 28.4852 51.2479L28.2456 51.4878L28.2872 51.1538C28.585 48.7552 28.5258 46.3696 28.1433 44.06C27.7518 41.6959 27.021 39.4096 25.9875 37.2687L25.9629 37.2177L25.9895 37.167C26.5235 36.1425 27.1322 35.156 27.8101 34.2169C28.4851 33.2823 29.2293 32.3932 30.0382 31.5587L30.1348 31.4589L30.2161 31.5716C31.3618 33.1612 32.095 35.2161 32.5072 37.4696ZM31.6751 30.3247C32.4122 30.4934 33.1546 30.6309 33.9023 30.73C34.6824 30.8333 35.4676 30.895 36.2573 30.9067C36.2343 30.3113 36.1914 29.7163 36.1293 29.1228C36.0689 28.5458 35.9893 27.9693 35.8913 27.3943C35.1293 27.8099 34.3904 28.2673 33.6782 28.7635C32.9821 29.2486 32.3133 29.7697 31.6751 30.3247ZM33.8715 30.9569C33.044 30.8471 32.2216 30.6906 31.4049 30.4967L31.1902 30.4457L31.3545 30.3002C32.0516 29.6825 32.7832 29.1068 33.5447 28.576C34.3061 28.0455 35.1004 27.5577 35.9227 27.1162L36.0647 27.0401L36.0925 27.197C36.2036 27.8259 36.2929 28.4605 36.3598 29.0995C36.4265 29.7362 36.4711 30.3765 36.4931 31.0189L36.4972 31.1379L36.3764 31.1368C35.5349 31.1297 34.6998 31.0665 33.8715 30.9569ZM38.0393 30.8464C38.3533 30.821 38.6654 30.7879 38.9756 30.7473C39.3265 30.7014 39.681 30.6451 40.0394 30.5788C40.644 30.4674 41.29 30.2952 41.9637 30.0783C42.6401 29.8603 43.3414 29.5981 44.0541 29.3074C44.7775 29.0121 45.5155 28.6861 46.2535 28.3458C46.979 28.0113 47.7123 27.6589 48.4341 27.3071C48.3651 26.8252 48.2807 26.3428 48.1806 25.8604C48.0817 25.3835 47.9675 24.9077 47.838 24.4339C46.6242 24.4167 45.4129 24.4922 44.2135 24.6578C42.98 24.8281 41.7584 25.0942 40.5591 25.4526L40.5475 25.456C40.0162 25.615 39.4965 25.79 38.989 25.9798C38.5004 26.1625 38.0212 26.3595 37.553 26.5696C37.6878 27.2793 37.7961 27.9945 37.8775 28.713C37.9576 29.4199 38.0117 30.1318 38.0393 30.8464ZM39.0055 30.9741C38.6452 31.0213 38.289 31.058 37.9367 31.0844L37.8163 31.0934L37.8123 30.9737C37.7864 30.2281 37.7312 29.4821 37.647 28.7382C37.5631 27.9969 37.4499 27.2581 37.3081 26.5244L37.2911 26.4366L37.3741 26.399C37.8746 26.1718 38.3864 25.9602 38.9074 25.7654C39.3933 25.5837 39.8866 25.4165 40.3866 25.2647L40.3815 25.2393L40.5036 25.2294C41.7087 24.8699 42.9382 24.6026 44.1817 24.431C45.4201 24.2601 46.6725 24.1842 47.9286 24.2067L48.0154 24.2082L48.0384 24.2909C48.1794 24.7992 48.3023 25.3075 48.4077 25.8146C48.5146 26.3298 48.6038 26.8454 48.6757 27.3606L48.6876 27.4462L48.5591 27.5015C47.8369 27.8537 47.0974 28.209 46.3515 28.5529C45.6091 28.8953 44.8674 29.2229 44.1423 29.519C43.4212 29.8131 42.7139 30.0777 42.0355 30.2963C41.3544 30.5158 40.6987 30.6903 40.082 30.804C39.7236 30.8702 39.3649 30.9271 39.0055 30.9741ZM36.2738 32.4371C35.5311 32.4283 34.7936 32.3783 34.062 32.2931C33.3753 32.213 32.6918 32.1015 32.0125 31.9638C32.7656 33.3253 33.3043 34.899 33.6636 36.5836C34.046 38.377 34.2252 40.2975 34.2442 42.2219C34.8552 40.7457 35.3315 39.2148 35.6689 37.6541C36.0398 35.9388 36.2429 34.1889 36.2738 32.4371ZM34.0892 32.0653C34.8546 32.1546 35.6228 32.2049 36.3917 32.2096L36.5086 32.2103L36.507 32.3252C36.483 34.1324 36.2776 35.9364 35.8959 37.7017C35.5161 39.4589 34.9608 41.1802 34.2358 42.8304L34.0102 43.3435L34.0137 42.7847C34.0268 40.6891 33.8531 38.5837 33.4366 36.6303C33.0626 34.877 32.4925 33.2465 31.6857 31.8566L31.5562 31.6334L31.8106 31.6875C32.5651 31.8479 33.3251 31.9762 34.0892 32.0653ZM49.0352 38.9111C49.0322 38.9895 49.017 39.0656 48.9913 39.1366C48.9649 39.2096 48.9272 39.2787 48.8802 39.3407C47.4825 43.1063 45.244 46.4244 42.3891 49.0915C39.5502 51.7431 36.1017 53.7512 32.2629 54.916L32.1524 54.9494C29.7998 55.6521 27.5063 56.0011 25.2157 56C22.9253 55.9988 20.6397 55.6475 18.3034 54.9496L18.1918 54.9163C16.3862 54.3683 14.6548 53.6309 13.0246 52.7167C11.3695 51.7886 9.81915 50.6784 8.40169 49.3999C4.80953 46.1587 2.22429 41.9726 0.933076 37.3718C-0.317034 32.9168 -0.353856 28.0728 1.08318 23.3211L1.26533 22.72L1.93498 22.6927C3.36773 22.6371 4.79987 22.6997 6.21745 22.8789C7.63662 23.0583 9.03965 23.3542 10.4121 23.7642L10.5131 23.7944C10.994 23.9404 11.467 24.099 11.9316 24.2693C12.3891 24.4369 12.8403 24.6169 13.2848 24.8087C13.7217 23.101 14.3141 21.444 15.0526 19.853C15.797 18.2497 16.6896 16.714 17.7208 15.2611L17.7113 15.2548L17.8041 15.1448C18.756 13.8179 19.8132 12.5765 20.966 11.4319C22.1185 10.2875 23.3675 9.23867 24.7037 8.29628L24.7408 8.27005L25.2097 7.92285L25.7381 8.29495C28.6525 10.3477 31.0746 12.8319 32.9776 15.5973C34.9257 18.4283 36.33 21.5536 37.1623 24.8121C37.6043 24.6213 38.0567 24.4407 38.5186 24.2713C38.9887 24.0989 39.4635 23.9398 39.9418 23.7948L40.0429 23.7642C41.4154 23.3542 42.8185 23.0583 44.2376 22.8789C45.6551 22.6997 47.0872 22.6371 48.52 22.6927L49.19 22.72L49.3718 23.3211C50.1606 25.9293 50.5049 28.566 50.4484 31.1509C50.3899 33.8226 49.9028 36.4387 49.0352 38.9111ZM48.7725 39.0596C48.7924 39.0044 48.8035 38.9464 48.8043 38.8887L48.8045 38.8698L48.8106 38.8525C49.6741 36.397 50.1587 33.7991 50.2168 31.1466C50.273 28.5855 49.9314 25.9725 49.1494 23.3866L49.0149 22.9418L48.5109 22.9213C47.0903 22.8662 45.6707 22.9282 44.2666 23.1057C42.8985 23.2787 41.5422 23.562 40.2111 23.954L40.2151 23.9741L40.0962 23.9882C39.5856 24.1409 39.0863 24.3072 38.5995 24.4857C38.104 24.6673 37.6138 24.8648 37.13 25.0768L37.0039 25.132L36.9707 24.9992C36.1492 21.7182 34.7447 18.5715 32.7861 15.7255C30.8988 12.983 28.4959 10.5187 25.6036 8.48166L25.2129 8.20624L24.7482 8.55043L24.7463 8.54789C23.4554 9.46598 22.2471 10.4846 21.1305 11.5933C20.0074 12.7084 18.9769 13.9141 18.0478 15.2006L17.9792 15.2968C16.9259 16.768 16.0173 18.3239 15.2633 19.9481C14.5119 21.5667 13.913 23.2546 13.4764 24.9957L13.443 25.1285L13.317 25.0733C12.8385 24.8638 12.3495 24.6673 11.8507 24.4845C11.361 24.305 10.8633 24.1391 10.3588 23.9882L10.2397 23.9741L10.2439 23.954C8.91292 23.562 7.5565 23.2787 6.18846 23.1057C4.78421 22.9282 3.36479 22.8662 1.94403 22.9213L1.44027 22.9418L1.30558 23.3866C-0.118733 28.0959 -0.0824012 32.8963 1.15645 37.3109C2.4358 41.8699 4.9978 46.0183 8.55791 49.2305C9.96326 50.4981 11.4996 51.5983 13.139 52.5176C14.7804 53.4381 16.5272 54.1782 18.3513 54.7242L18.476 54.739L18.4707 54.7596C20.7521 55.4319 22.9828 55.7703 25.2157 55.7713C27.449 55.7723 29.6877 55.4362 31.9841 54.7596L31.979 54.739L32.1036 54.7242C35.9451 53.5739 39.395 51.5731 42.2303 48.9247C45.0636 46.278 47.2841 42.984 48.6687 39.2453L48.6753 39.2278L48.6866 39.2137C48.7233 39.1674 48.7526 39.1152 48.7725 39.0596ZM46.6499 40.1019C46.3461 40.172 46.0352 40.2373 45.7241 40.2901C45.3327 40.3564 44.9377 40.4038 44.5504 40.4175C43.8682 40.442 43.2032 40.4073 42.5477 40.3148C41.9608 40.2318 41.3806 40.1023 40.8017 39.9277C41.138 41.2075 41.1883 42.6648 41.0467 44.1283C40.8874 45.7757 40.485 47.4321 39.9746 48.8521C41.3916 47.6934 42.6637 46.3803 43.7693 44.9429C44.9155 43.453 45.8837 41.8282 46.6499 40.1019ZM45.6851 40.0642C46.0713 39.9987 46.4537 39.9145 46.8209 39.8263L47.0455 39.7723L46.9549 39.9823C46.1678 41.8029 45.158 43.5152 43.9536 45.0811C42.7509 46.6446 41.3544 48.0617 39.7918 49.2943L39.4601 49.5561L39.6113 49.1639C40.1842 47.6775 40.6441 45.8859 40.8161 44.1068C40.9626 42.5923 40.9005 41.0863 40.522 39.7868L40.4617 39.58L40.6691 39.6463C41.3029 39.8494 41.9375 39.997 42.5804 40.0879C43.2235 40.1788 43.8749 40.2129 44.5422 40.1888C44.9161 40.1757 45.3014 40.1292 45.6851 40.0642ZM6.25391 44.2999C6.23397 44.3196 6.22186 44.3316 6.25024 44.3057L6.25391 44.2999ZM25.2326 53.7499C25.4334 53.601 25.631 53.4504 25.8245 53.2989C26.0395 53.1304 26.2471 52.9633 26.4465 52.7981C26.9239 50.4756 27.0366 48.149 26.8191 45.8827C26.6032 43.6325 26.0614 41.4412 25.2282 39.372C24.3953 41.44 23.8534 43.63 23.637 45.8786C23.419 48.1432 23.5311 50.468 24.0071 52.7885C24.2109 52.9578 24.4184 53.1252 24.6292 53.2903C24.8295 53.4473 25.0308 53.6006 25.2326 53.7499ZM25.9688 53.4783C25.7469 53.6522 25.5244 53.8213 25.3025 53.9848L25.2332 54.0358L25.164 53.9848C24.9316 53.8141 24.705 53.6422 24.4848 53.4698C24.2628 53.2959 24.0432 53.1183 23.8267 52.938L23.7962 52.9126L23.788 52.8734C23.3006 50.5175 23.1851 48.1567 23.4064 45.8572C23.6342 43.4906 24.2186 41.1886 25.121 39.0233L25.2282 38.7664L25.3353 39.0233C26.2379 41.1897 26.8224 43.4931 27.0497 45.8612C27.2705 48.1624 27.1542 50.525 26.6656 52.8825L26.6575 52.9215L26.6266 52.9472C26.4046 53.1317 26.1848 53.309 25.9688 53.4783ZM21.8981 50.8445C21.6436 48.5384 21.7153 46.2455 22.0838 44.0213C22.4761 41.6535 23.2047 39.3646 24.2338 37.221C23.6932 36.1916 23.0064 35.1095 22.2481 34.0748C21.4825 33.0298 20.6437 32.0327 19.8088 31.1859C19.0456 31.1352 18.6542 31.0017 18.4922 30.8636C18.3702 30.7591 18.349 30.6451 18.394 30.542C18.4323 30.4541 18.5237 30.3833 18.6384 30.3443C18.679 30.3305 18.7235 30.3205 18.7699 30.3148C18.1688 29.7917 17.5382 29.2982 16.8841 28.8375C16.1372 28.3114 15.3581 27.8273 14.5558 27.3905C13.8309 31.581 14.1862 35.95 15.4796 40.0355C16.754 44.0607 18.9391 47.811 21.8981 50.8445Z" fill="#2B2A29"/>
<path d="M7.38246 40.9375C6.3616 41.7934 6.87344 43.8862 6.452 44.9008C6.38937 45.0509 6.29407 45.1797 6.1781 45.2917" stroke="#2B2A29" stroke-width="0.377953" stroke-miterlimit="22.9256"/>
<path fill-rule="evenodd" clip-rule="evenodd" d="M5.31238 15.3457C6.51013 15.3457 7.48096 16.305 7.48096 17.488C7.48096 18.6713 6.51013 19.6303 5.31238 19.6303C4.11499 19.6303 3.1438 18.6713 3.1438 17.488C3.1438 16.305 4.11499 15.3457 5.31238 15.3457Z" fill="#E84444"/>
<path fill-rule="evenodd" clip-rule="evenodd" d="M5.3174 13.9834C7.27618 13.9834 8.86356 15.5514 8.86356 17.4865C8.86356 19.4215 7.27618 20.9897 5.3174 20.9897C3.35862 20.9897 1.77124 19.4215 1.77124 17.4865C1.77124 15.5514 3.35862 13.9834 5.3174 13.9834ZM5.3174 15.3509C6.51161 15.3509 7.47913 16.3069 7.47913 17.4865C7.47913 18.6662 6.51161 19.622 5.3174 19.622C4.12332 19.622 3.15567 18.6662 3.15567 17.4865C3.15567 16.3069 4.12332 15.3509 5.3174 15.3509Z" fill="#2B2A29"/>
<path d="M5.31717 13.9219C6.31368 13.9219 7.21588 14.3209 7.86877 14.9658C8.52153 15.6108 8.92547 16.502 8.92547 17.4865C8.92547 18.4709 8.52153 19.3623 7.86877 20.0072C7.21588 20.6521 6.31368 21.0512 5.31717 21.0512C4.32065 21.0512 3.41845 20.6521 2.76557 20.0072C2.1128 19.3623 1.70886 18.4709 1.70886 17.4865C1.70886 16.502 2.1128 15.6108 2.76557 14.9658C3.41845 14.3209 4.32065 13.9219 5.31717 13.9219ZM7.78081 15.0527C7.15043 14.43 6.27931 14.0448 5.31717 14.0448C4.35503 14.0448 3.4839 14.43 2.85352 15.0527C2.22327 15.6754 1.83327 16.536 1.83327 17.4865C1.83327 18.437 2.22327 19.2976 2.85352 19.9204C3.4839 20.543 4.35503 20.9283 5.31717 20.9283C6.27931 20.9283 7.15043 20.543 7.78081 19.9204C8.41107 19.2976 8.80106 18.437 8.80106 17.4865C8.80106 16.536 8.41107 15.6754 7.78081 15.0527ZM5.31717 15.2895C5.9314 15.2895 6.48752 15.5355 6.88987 15.9329C7.29222 16.3307 7.54116 16.88 7.54116 17.4865C7.54116 18.0933 7.29222 18.6426 6.88987 19.0401C6.48752 19.4376 5.9314 19.6835 5.31717 19.6835C4.70294 19.6835 4.14682 19.4376 3.74447 19.0401C3.34212 18.6426 3.09317 18.0933 3.09317 17.4865C3.09317 16.88 3.34212 16.3307 3.74471 15.9331C4.14682 15.5355 4.70294 15.2895 5.31717 15.2895ZM6.80203 16.0198C6.42207 15.6446 5.89714 15.4124 5.31717 15.4124C4.73731 15.4124 4.21226 15.6446 3.83242 16.0198C3.45258 16.3948 3.21758 16.9135 3.21758 17.4865C3.21758 18.0593 3.45258 18.578 3.83242 18.9532C4.21226 19.3285 4.73731 19.5606 5.31717 19.5606C5.89714 19.5606 6.42207 19.3285 6.80191 18.9532C7.18175 18.578 7.41675 18.0593 7.41675 17.4865C7.41675 16.9135 7.18187 16.3948 6.80203 16.0198Z" fill="black"/>
<path fill-rule="evenodd" clip-rule="evenodd" d="M45.1801 15.3467C46.3776 15.3467 47.3486 16.306 47.3486 17.489C47.3486 18.6722 46.3776 19.6313 45.1801 19.6313C43.9824 19.6313 43.0115 18.6722 43.0115 17.489C43.0115 16.306 43.9824 15.3467 45.1801 15.3467Z" fill="#AAD9D9"/>
<path fill-rule="evenodd" clip-rule="evenodd" d="M45.1756 13.9834C47.1343 13.9834 48.7216 15.5514 48.7216 17.4865C48.7216 19.4215 47.1343 20.9897 45.1756 20.9897C43.2168 20.9897 41.6294 19.4215 41.6294 17.4865C41.6294 15.5514 43.2168 13.9834 45.1756 13.9834ZM45.1756 15.3509C46.3696 15.3509 47.3373 16.3069 47.3373 17.4865C47.3373 18.6662 46.3696 19.622 45.1756 19.622C43.9813 19.622 43.0138 18.6662 43.0138 17.4865C43.0138 16.3069 43.9813 15.3509 45.1756 15.3509Z" fill="#2B2A29"/>
<path d="M45.1757 13.9219C46.1722 13.9219 47.0744 14.3209 47.7273 14.9658C48.3801 15.6108 48.784 16.502 48.784 17.4865C48.784 18.4709 48.3801 19.3622 47.7273 20.0072C47.0744 20.6521 46.1722 21.0511 45.1757 21.0511C44.1792 21.0511 43.277 20.6521 42.6241 20.0072C41.9713 19.3622 41.5674 18.4709 41.5674 17.4865C41.5674 16.502 41.9713 15.6108 42.6241 14.9658C43.277 14.3209 44.1792 13.9219 45.1757 13.9219ZM47.6393 15.0527C47.009 14.43 46.1378 14.0448 45.1757 14.0448C44.2135 14.0448 43.3424 14.43 42.712 15.0527C42.0818 15.6754 41.6918 16.536 41.6918 17.4865C41.6918 18.437 42.0818 19.2975 42.712 19.9204C43.3424 20.543 44.2135 20.9283 45.1757 20.9283C46.1378 20.9283 47.009 20.543 47.6393 19.9204C48.2696 19.2975 48.6596 18.437 48.6596 17.4865C48.6596 16.536 48.2696 15.6754 47.6393 15.0527ZM45.1757 15.2895C45.7899 15.2895 46.346 15.5355 46.7484 15.9329C47.1507 16.3305 47.3997 16.88 47.3997 17.4865C47.3997 18.0933 47.1507 18.6426 46.7484 19.0401C46.346 19.4376 45.7899 19.6835 45.1757 19.6835C44.5615 19.6835 44.0053 19.4376 43.603 19.0401C43.2006 18.6426 42.9517 18.0933 42.9517 17.4865C42.9517 16.88 43.2006 16.3305 43.6032 15.9332C44.0053 15.5355 44.5615 15.2895 45.1757 15.2895ZM46.6604 16.0198C46.2806 15.6446 45.7555 15.4124 45.1757 15.4124C44.5957 15.4124 44.0708 15.6446 43.6909 16.0198C43.311 16.3948 43.0761 16.9135 43.0761 17.4865C43.0761 18.0593 43.3111 18.578 43.6909 18.9532C44.0708 19.3285 44.5957 19.5606 45.1757 19.5606C45.7555 19.5606 46.2806 19.3285 46.6604 18.9532C47.0403 18.578 47.2753 18.0593 47.2753 17.4865C47.2753 16.9135 47.0403 16.3948 46.6604 16.0198Z" fill="black"/>
<path d="M14.1169 26.9726C13.6633 26.8818 13.2244 26.8094 12.8156 26.8248C12.4872 26.8371 12.1664 26.9098 11.8536 27.0852C11.2297 27.6899 11.159 28.5869 11.0848 29.5337C11.0123 30.4605 10.9362 31.4268 10.4318 32.387C10.1479 32.9288 9.75996 33.3601 9.29119 33.66C8.81874 33.9623 8.27021 34.1277 7.66894 34.1359H7.66613C6.93152 34.1444 6.2587 33.9943 5.58869 33.8447C5.116 33.7394 4.64404 33.6339 4.18236 33.6006C3.62379 33.5601 3.13984 33.6264 2.74031 33.7999C2.36462 33.9631 2.05268 34.2275 1.81327 34.5929L0.652832 33.8483C1.04442 33.2512 1.55858 32.8173 2.18174 32.5464C2.79156 32.2815 3.49534 32.178 4.2801 32.2348C4.83292 32.2746 5.362 32.393 5.89219 32.5111C6.48538 32.6436 7.08089 32.7763 7.65267 32.7702C7.98395 32.7659 8.28317 32.6764 8.53762 32.5138C8.80357 32.3435 9.0294 32.0881 9.20115 31.7603C9.57537 31.0477 9.64032 30.2232 9.70222 29.4321C9.80205 28.1579 9.89673 26.9537 11.0255 25.9805L11.0276 25.9827C11.5998 25.6244 12.1786 25.481 12.7666 25.459C13.3108 25.4387 13.8451 25.525 14.3879 25.6334L14.1169 26.9726Z" fill="#2B2A29"/>
<path d="M14.0948 27.0842C13.8693 27.0392 13.6479 26.9986 13.4352 26.9719C13.2243 26.9454 13.0181 26.9314 12.8198 26.9387C12.6642 26.9444 12.5101 26.9647 12.3586 27.0038C12.2124 27.0416 12.0672 27.0981 11.924 27.1771C11.6368 27.4605 11.4749 27.814 11.3759 28.208C11.274 28.6153 11.2378 29.0726 11.201 29.5414C11.1649 30.0073 11.127 30.4838 11.0348 30.9683C10.9418 31.4557 10.7932 31.9483 10.5356 32.4392C10.3901 32.717 10.2165 32.9681 10.0192 33.1884C9.82123 33.4095 9.59834 33.5997 9.35465 33.7555C9.10766 33.9135 8.83988 34.0361 8.55631 34.1191C8.27715 34.2009 7.98025 34.2456 7.67051 34.2499L7.66671 34.2503C6.92134 34.2582 6.24277 34.1073 5.56774 33.957L5.55832 33.9549C5.0926 33.8509 4.62799 33.7469 4.17438 33.7147C3.90243 33.6949 3.64945 33.7011 3.41751 33.733C3.18765 33.7645 2.97699 33.8218 2.78762 33.9041C2.60951 33.9816 2.44619 34.0831 2.30001 34.208C2.15431 34.3328 2.0239 34.482 1.91087 34.6543L1.84787 34.7505L0.49292 33.8814L0.555921 33.7853C0.757157 33.4788 0.990321 33.2132 1.25248 32.99C1.51696 32.765 1.81227 32.5815 2.13547 32.4413C2.44901 32.3047 2.78726 32.2095 3.14716 32.1563C3.50657 32.1031 3.888 32.0911 4.28876 32.12C4.84109 32.1594 5.36981 32.2771 5.89877 32.3947L5.91761 32.3989C6.21121 32.4642 6.50578 32.5299 6.79999 32.5786C7.08857 32.6266 7.37434 32.6578 7.65154 32.6554C7.80421 32.6536 7.95077 32.6317 8.0879 32.5918C8.22675 32.5518 8.35679 32.4925 8.47508 32.4169C8.59827 32.338 8.71351 32.2379 8.81835 32.119C8.92343 31.9999 9.0175 31.8617 9.09861 31.7071C9.27917 31.3626 9.38597 30.9887 9.45484 30.6051C9.52445 30.2169 9.55613 29.8156 9.58659 29.4233C9.68862 28.1246 9.78514 26.8972 10.9496 25.8932L11.046 25.8101L11.0593 25.8285C11.3238 25.6734 11.5908 25.5611 11.859 25.4841C12.1584 25.3982 12.4599 25.3551 12.7627 25.3439C13.043 25.3334 13.3187 25.3502 13.5921 25.3832C13.8605 25.4155 14.134 25.4653 14.4108 25.5205L14.5246 25.5433L14.2085 27.107L14.0948 27.0842ZM13.4642 26.745C13.6492 26.7683 13.8368 26.8008 14.0261 26.8372L14.2514 25.7226C14.0237 25.6785 13.7957 25.6392 13.5639 25.6113C13.299 25.5794 13.0348 25.5629 12.7709 25.5728C12.4865 25.5833 12.204 25.6236 11.9237 25.7041C11.6449 25.7842 11.3665 25.9058 11.0902 26.0791L11.0786 26.0866C10.0083 27.0253 9.91579 28.1988 9.81841 29.4393C9.78722 29.8382 9.75504 30.2454 9.6836 30.6448C9.61118 31.0488 9.49778 31.4443 9.30499 31.8122C9.21507 31.9839 9.11023 32.1374 8.99353 32.2699C8.87572 32.4038 8.74385 32.5174 8.60121 32.609C8.46359 32.6972 8.31312 32.7657 8.15347 32.8119C7.99701 32.8572 7.82966 32.8822 7.65436 32.8843C7.36027 32.8869 7.06154 32.8545 6.76182 32.8047C6.46774 32.756 6.16692 32.6888 5.86733 32.6221L5.84849 32.6179C5.32968 32.5026 4.81161 32.3873 4.27237 32.3489C3.888 32.321 3.52333 32.3326 3.18153 32.3831C2.84206 32.4335 2.52375 32.5229 2.22918 32.651C1.92702 32.7817 1.65153 32.9528 1.40442 33.1631C1.18556 33.3494 0.98861 33.5668 0.814899 33.8149L1.78169 34.4349C1.89105 34.2837 2.01339 34.1502 2.1482 34.0349C2.31273 33.8943 2.49537 33.7805 2.69392 33.6943C2.90347 33.6038 3.13468 33.5405 3.38558 33.506C3.63489 33.4719 3.90415 33.4651 4.19077 33.4858C4.65784 33.5191 5.13273 33.6254 5.60872 33.7315L5.61998 33.7338C6.28118 33.8813 6.94655 34.0293 7.66525 34.021L7.66916 34.0206C7.95554 34.0167 8.23079 33.9753 8.49087 33.899C8.75327 33.8222 9.00075 33.7092 9.22865 33.5633C9.4546 33.4188 9.66171 33.242 9.84557 33.0368C10.0294 32.8314 10.1919 32.596 10.3293 32.334C10.5755 31.8648 10.7177 31.3932 10.8067 30.9262C10.8962 30.4565 10.9333 29.9853 10.9692 29.5244C11.0067 29.0474 11.0436 28.5819 11.1509 28.1533C11.2606 27.7161 11.4436 27.3219 11.7725 27.0028L11.7964 26.9848C11.9619 26.8921 12.1299 26.8263 12.2997 26.7822C12.4687 26.7387 12.6396 26.7161 12.8116 26.7098C13.0218 26.7019 13.2403 26.7169 13.4642 26.745Z" fill="#2B2A29"/>
<path d="M5.59094 44.6362C6.34194 44.1001 6.42402 42.8263 6.49987 41.6477C6.557 40.7537 6.61217 39.9038 6.93305 39.2385C7.11703 38.8586 7.40672 38.5562 7.74851 38.3163C8.12371 38.0526 8.56594 37.8653 8.987 37.7331V37.7306C9.60845 37.5357 10.2239 37.6358 10.8205 37.7328L11.0669 37.7706C11.4772 37.8309 11.8781 37.9453 12.2774 38.0594C12.7272 38.1877 13.1763 38.3161 13.5866 38.3327C14.3321 38.3631 14.8293 38.1535 15.1667 37.7771C15.5489 37.351 15.784 36.6887 15.9563 35.8965V35.8938C16.0558 35.4381 16.0869 34.95 16.1182 34.4616C16.1623 33.771 16.2067 33.0777 16.4265 32.3688C16.6069 31.7897 16.9031 31.1685 17.3344 30.6817C17.72 30.2468 18.2084 29.9171 18.8138 29.8005C18.9224 29.7796 19.0141 29.7586 19.1124 29.7363C19.4797 29.6529 19.919 29.5532 20.2581 29.5667L20.204 30.9324C20.0534 30.9265 19.7092 31.0045 19.4216 31.0698C19.2834 31.1011 19.1538 31.1307 19.0795 31.145C18.8049 31.1978 18.5702 31.362 18.3757 31.5816C18.087 31.9074 17.8808 32.3491 17.7494 32.7707C17.5791 33.3198 17.5397 33.9347 17.5007 34.5471C17.466 35.0923 17.4311 35.6366 17.3117 36.1831C17.0932 37.1838 16.7695 38.05 16.2024 38.6825C15.5902 39.3655 14.7446 39.7477 13.5326 39.6985C12.9542 39.675 12.4238 39.5234 11.8925 39.3718C11.549 39.2738 11.2045 39.1752 10.8635 39.1256L10.5981 39.0825C10.1647 39.0119 9.71757 38.9394 9.40452 39.0373L9.40379 39.035C9.10432 39.1289 8.79714 39.2575 8.55101 39.4304C8.38892 39.5441 8.25729 39.6756 8.18573 39.825V39.8275C7.97727 40.2597 7.93067 40.9779 7.88234 41.7332C7.78668 43.2209 7.68307 44.8281 6.39895 45.7448L5.59094 44.6362Z" fill="#2B2A29"/>
<path d="M5.52278 44.5439C6.22839 44.0403 6.30889 42.7958 6.38302 41.6441L6.38327 41.6407C6.41189 41.1917 6.44027 40.7533 6.50217 40.3412C6.56456 39.9229 6.66206 39.5328 6.82758 39.1897C6.91969 38.9984 7.03884 38.8246 7.17732 38.6684C7.32547 38.5005 7.49637 38.3526 7.68084 38.2232C7.86238 38.0957 8.05812 37.9858 8.25813 37.8915C8.45875 37.7972 8.66647 37.7173 8.87016 37.6504V37.6479L8.95151 37.6222C9.27691 37.52 9.59937 37.4952 9.91707 37.5083C10.2299 37.5213 10.5363 37.5712 10.837 37.6204L11.0831 37.6576C11.2936 37.6882 11.5005 37.7329 11.7043 37.784C11.9034 37.8338 12.1046 37.8913 12.3052 37.9488L12.3085 37.9498C12.7521 38.0764 13.1942 38.2026 13.5903 38.2188C13.9474 38.2331 14.2433 38.191 14.4886 38.1009C14.7291 38.0123 14.923 37.8762 15.0792 37.7018C15.261 37.4994 15.409 37.238 15.532 36.9322C15.6559 36.6252 15.7551 36.2713 15.8395 35.8852L15.8422 35.8703C15.9392 35.4254 15.9705 34.9443 16.0014 34.4636L16.002 34.4544C16.0463 33.7568 16.091 33.0575 16.3153 32.3357C16.4131 32.0209 16.5445 31.6939 16.7118 31.383C16.86 31.1074 17.038 30.8421 17.2467 30.6067C17.4554 30.371 17.6937 30.1649 17.9627 30.0046C18.2114 29.8565 18.4872 29.7466 18.7912 29.6881C18.8948 29.6685 18.9778 29.6493 19.0647 29.6295L19.0862 29.6247C19.2724 29.5824 19.4776 29.5361 19.676 29.5025C19.8804 29.4679 20.0831 29.4457 20.2618 29.4523L20.378 29.4568L20.3144 31.0524L20.1987 31.0476C20.1345 31.0451 20.0186 31.0623 19.8854 31.0878C19.7417 31.1151 19.5867 31.1503 19.4466 31.1824L19.1018 31.2582C18.9842 31.2806 18.8751 31.326 18.7746 31.3882C18.6612 31.4587 18.5568 31.5511 18.4622 31.6576C18.3342 31.802 18.2219 31.9734 18.1254 32.156C18.0156 32.3651 17.9269 32.5885 17.8596 32.8051C17.7776 33.07 17.7261 33.3553 17.6907 33.6495C17.6548 33.9477 17.635 34.2519 17.6159 34.5548C17.5988 34.827 17.5812 35.0995 17.5527 35.3763C17.5244 35.6541 17.4849 35.9316 17.4246 36.208C17.3142 36.713 17.1765 37.1864 16.9936 37.6158C16.8099 38.0473 16.5807 38.433 16.2886 38.7588C15.9707 39.1132 15.5918 39.3903 15.1349 39.5721C14.681 39.7525 14.1502 39.8388 13.5273 39.8135C12.939 39.7899 12.4043 39.6373 11.869 39.4849L11.8544 39.4811C11.5171 39.3844 11.1778 39.2875 10.8461 39.2396L10.5774 39.1958C10.1582 39.1276 9.72526 39.0576 9.43888 39.1472L9.32119 39.1842C9.21452 39.2198 9.10785 39.2613 9.00497 39.3078C8.86649 39.3703 8.73424 39.4424 8.61742 39.5247C8.53961 39.5792 8.47001 39.6378 8.41226 39.6997C8.36725 39.748 8.32933 39.7989 8.30094 39.8516L8.28969 39.8769C8.19121 40.0815 8.13017 40.3581 8.08796 40.6746C8.04564 40.9946 8.02166 41.3634 7.99756 41.7412C7.94961 42.4902 7.89908 43.2702 7.69748 43.9843C7.4927 44.7091 7.1328 45.3621 6.46609 45.8379L6.37189 45.9049L5.42883 44.6108L5.52278 44.5439ZM6.61472 41.659C6.54022 42.8144 6.45972 44.0594 5.74922 44.6585L6.42315 45.5833C6.98135 45.1493 7.29195 44.5673 7.47386 43.9232C7.66873 43.233 7.71852 42.4645 7.76586 41.7266C7.78972 41.3493 7.81394 40.9806 7.85835 40.6451C7.9019 40.3172 7.96563 40.0271 8.06839 39.803L8.08026 39.7761C8.11989 39.694 8.17543 39.6163 8.24149 39.5448C8.31097 39.47 8.39318 39.4006 8.48346 39.3375C8.61228 39.2469 8.75724 39.1678 8.90869 39.0994C9.05757 39.0324 9.21415 38.9748 9.36829 38.9264L9.48573 38.8894L9.48818 38.8991C9.81064 38.8396 10.2174 38.9051 10.6125 38.9693L10.8796 39.0129C11.2258 39.0627 11.5738 39.1624 11.92 39.261L11.9335 39.2649C12.4546 39.4138 12.9754 39.5619 13.5364 39.5846C14.1253 39.6085 14.6242 39.528 15.0485 39.3594C15.4705 39.1915 15.8207 38.9352 16.115 38.6071C16.3898 38.3005 16.6062 37.936 16.7804 37.5267C16.9556 37.115 17.0893 36.6545 17.1973 36.1595C17.2563 35.8893 17.2945 35.6211 17.3218 35.3541C17.3492 35.0859 17.3668 34.8129 17.3842 34.5403C17.4037 34.2312 17.4237 33.921 17.4598 33.6223C17.4962 33.3192 17.5505 33.0216 17.6381 32.7384C17.7097 32.5071 17.8035 32.2704 17.9192 32.0504C18.0227 31.8539 18.1455 31.6674 18.2878 31.5068C18.3965 31.3843 18.5179 31.2771 18.651 31.1945C18.7754 31.1175 18.9112 31.0609 19.0563 31.0332L19.3951 30.9592C19.5419 30.9256 19.7036 30.8888 19.8415 30.8625C19.9332 30.8449 20.0193 30.831 20.0915 30.8236L20.1372 29.6812C20.0057 29.6857 19.8614 29.7037 19.7149 29.7286C19.5173 29.762 19.3183 29.807 19.1377 29.8479L19.1163 29.8527C19.0224 29.8742 18.9328 29.8949 18.835 29.9134C18.5597 29.9664 18.309 30.0664 18.0827 30.2013C17.8342 30.3491 17.6141 30.5398 17.421 30.7575C17.2256 30.978 17.0577 31.2287 16.9169 31.4906C16.756 31.7895 16.63 32.1026 16.5367 32.4029C16.3214 33.0969 16.2774 33.7837 16.2339 34.4673L16.2332 34.4785C16.2019 34.9637 16.1706 35.449 16.0721 35.9057L16.0694 35.9208C15.9822 36.3215 15.8784 36.6914 15.7474 37.0167C15.6147 37.3464 15.4535 37.6303 15.2528 37.8536C15.072 38.0554 14.8479 38.2126 14.5692 38.3152C14.2952 38.4162 13.9694 38.4634 13.5814 38.4477C13.1592 38.4305 12.705 38.3009 12.2503 38.1714L12.2447 38.17C12.0479 38.1137 11.8498 38.057 11.6475 38.0065C11.4487 37.9567 11.2491 37.9137 11.0491 37.8845L10.8026 37.8471C10.5066 37.7985 10.2065 37.7495 9.90814 37.7372C9.64072 37.7263 9.37135 37.7437 9.10271 37.8165L9.02148 37.8432C8.8025 37.9117 8.57668 37.9963 8.35807 38.099C8.1676 38.1886 7.98325 38.2919 7.81516 38.4101C7.64463 38.5298 7.48719 38.6659 7.35165 38.8192C7.22809 38.9589 7.12117 39.1153 7.03762 39.2883C6.88275 39.6095 6.791 39.9779 6.73179 40.3743C6.67148 40.7767 6.64334 41.2109 6.61496 41.6557L6.61472 41.659Z" fill="#2B2A29"/>
<path d="M2.27023 36.1858C1.98948 36.4136 1.57477 36.3738 1.34405 36.0965C1.11321 35.8191 1.1537 35.4093 1.43446 35.1814C1.68059 34.9817 1.72463 34.862 1.99877 34.7866C1.89075 35.262 2.05835 35.7489 2.24209 36.1895C2.1764 36.2167 2.3232 36.1429 2.27023 36.1858ZM12.7036 29.2377C13.3205 28.9013 12.8199 28.3561 12.8519 27.7188C12.8971 26.8196 12.9401 25.9693 13.7386 25.2421C14.0063 24.9987 14.4235 25.0158 14.6699 25.2803C14.9162 25.5448 14.8988 25.9569 14.631 26.2002C14.229 26.5665 14.1988 27.1566 14.1676 27.78C14.135 28.4245 14.1012 29.0966 13.7636 29.7842C13.4515 30.4224 13.2999 30.6859 12.6648 30.8605C12.8069 30.4223 12.9685 29.6351 12.7036 29.2377ZM23.392 19.1226C23.1382 19.3804 22.7211 19.3862 22.4605 19.1355C22.1997 18.885 22.1938 18.4729 22.4473 18.2151C23.0137 17.6415 23.3993 17.2151 23.7175 16.7571C24.0364 16.2986 24.3003 15.7923 24.6241 15.058C24.8601 14.5227 25.6301 14.5483 25.8412 15.0811L25.8419 15.0809C26.0191 15.5261 26.1504 15.8351 26.306 16.108C26.4571 16.3728 26.6412 16.6192 26.9294 16.9484L28.0972 18.2803C28.3348 18.5519 28.305 18.9629 28.03 19.1979C27.755 19.4326 27.339 19.4032 27.1012 19.1315L25.898 17.7598L25.8956 19.4004C26.2146 20.1397 26.6423 20.6235 27.2379 21.1611C27.8507 21.7162 28.4427 22.2509 29.1794 22.6445C29.4999 22.8148 29.62 23.2097 29.4476 23.5264C29.2751 23.843 28.8754 23.9618 28.5548 23.7914C27.7032 23.3368 27.0573 22.7596 26.3501 22.1197C26.19 21.9747 26.0371 21.8313 25.8923 21.6838L25.8902 23.0837C25.9757 23.2889 26.0666 24.28 26.1619 24.4584C26.673 25.414 29.9012 29.0684 30.0899 29.1621L30.3267 29.4155C32.0451 27.8146 33.5571 26.726 35.6536 25.6514C34.2071 19.5718 30.6641 13.9544 25.2226 9.95962C22.8821 11.6881 20.8548 13.7316 19.1605 16.0929L19.1616 16.0936C17.0928 18.9733 15.61 22.2099 14.793 25.6469C16.8872 26.7208 18.5064 27.7855 20.22 29.3881C21.497 28.8728 23.3975 25.7986 24.1744 24.7149C24.3638 24.4511 24.4977 23.3728 24.5744 23.0964L24.5766 21.6608C23.8478 22.4722 22.977 23.1592 22.0878 23.7903C21.7929 24.0001 21.3813 23.9336 21.1692 23.6426C20.9569 23.351 21.0241 22.9447 21.3189 22.7353C22.5682 21.8484 23.9216 20.7498 24.5799 19.3429L24.5824 17.7973C24.2638 18.2123 23.8903 18.6177 23.392 19.1226ZM29.3457 30.3272C28.7218 30.0173 26.8774 27.4029 25.8865 26.328L25.878 34.5156C26.7642 33.1388 28.2012 31.5184 29.3457 30.3272ZM24.5912 26.3732C23.7567 27.2243 22.317 29.8815 21.225 30.3804C22.353 31.5571 23.6862 33.1333 24.5623 34.491L24.5912 26.3732ZM37.7285 50.6162C37.7134 50.4681 37.747 50.3369 37.8224 50.211C39.4154 47.2444 40.5353 41.7151 38.8611 38.9297C38.5347 38.3838 39.1132 37.7516 39.6939 38.003L39.6945 38.002C41.2664 38.6907 42.7719 39.065 44.5001 39.0034C45.4458 38.9698 46.5213 38.6936 47.4368 38.439C48.5191 35.3821 48.9784 32.0896 48.7117 28.7507C47.3618 29.405 45.966 30.0583 44.5989 30.6163C43.0881 31.2326 41.6209 31.7278 40.3034 31.9706C39.5096 32.1171 38.7259 32.2184 37.9432 32.274C37.6265 41.5544 34.0294 48.0503 28.1353 53.5199C27.8648 53.7702 26.8991 54.3203 26.8883 54.3626C30.3123 53.9141 34.8255 52.4569 37.7285 50.6162ZM32.6805 45.6264C33.1182 40.5794 32.5679 35.0316 30.1217 31.6379C28.5084 33.3024 27.1532 35.1854 26.0926 37.2194C28.1444 41.4698 29.0077 46.2926 28.4025 51.1675C29.4436 50.1241 30.4148 48.9835 31.3003 47.7487L31.3013 47.7494L31.3045 47.7462C31.7999 47.0543 32.2583 46.3473 32.6805 45.6264ZM31.4316 30.3853C33.0568 30.7714 34.7052 31.0083 36.3775 31.0223C36.3336 29.7453 36.2004 28.4734 35.9783 27.2168C34.3431 28.0944 32.817 29.158 31.4316 30.3853ZM37.928 30.97C38.6351 30.9172 39.3436 30.824 40.0608 30.6914C41.2819 30.4662 42.6641 29.9981 44.0982 29.4131C45.5469 28.8218 47.0571 28.1062 48.5104 27.3976L48.5609 27.3758C48.4188 26.3576 48.209 25.3373 47.9269 24.321C45.4204 24.2761 42.9265 24.625 40.5256 25.3427L40.521 25.3431L40.5212 25.3441C39.4477 25.665 38.4129 26.0536 37.4222 26.503C37.7069 27.9755 37.8759 29.4695 37.928 30.97ZM36.3913 32.3239C34.8399 32.3145 33.3027 32.1223 31.7866 31.7995C33.5029 34.7565 34.1543 38.788 34.1296 42.785C35.5767 39.4921 36.3436 35.9125 36.3913 32.3239ZM48.9202 38.89C48.9181 39.0347 48.8662 39.1733 48.7778 39.2844C45.9936 46.8011 39.8472 52.5285 32.1282 54.8368L32.1236 54.8373L32.1238 54.8381C27.4359 56.2393 22.9881 56.2303 18.3313 54.8381L18.3316 54.8373L18.3269 54.8368C14.6631 53.7413 11.3071 51.8654 8.4798 49.3151C1.44057 42.9636 -1.71376 32.9695 1.19444 23.3538L1.35286 22.8309L1.93956 22.8069C4.79296 22.6961 7.64256 23.0565 10.3786 23.874L10.3784 23.875L10.383 23.8755C11.4106 24.1827 12.4053 24.5489 13.3638 24.9683C14.2424 21.4659 15.7746 18.1777 17.8844 15.2309L17.8832 15.2301L17.8931 15.2184C19.7885 12.5745 22.1053 10.2697 24.7709 8.38954L24.7715 8.39026L25.2114 8.06445L25.6709 8.38821C31.5872 12.5554 35.4635 18.5038 37.0833 24.9717C38.0443 24.5507 39.0418 24.1834 40.072 23.8755L40.0767 23.875L40.0764 23.874C42.8126 23.0565 45.6621 22.6961 48.5155 22.8069L49.1026 22.8309L49.2606 23.3538C50.8596 28.641 50.6248 34.0424 48.9202 38.89ZM46.8483 39.9374C46.1063 40.1159 45.3077 40.2763 44.5463 40.3031C43.1966 40.3517 41.9142 40.1655 40.6338 39.7553C41.4649 42.6085 40.7876 46.4348 39.7198 49.2046C42.8337 46.7481 45.2824 43.5593 46.8483 39.9374ZM13.0244 26.4993C12.0361 26.0514 11.0044 25.6642 9.93396 25.3441L9.93433 25.3431L9.92968 25.3427C7.52855 24.625 5.03505 24.2761 2.52859 24.321C0.57801 31.3489 2.03914 38.5449 5.95413 44.1407C6.39196 44.3721 6.36554 44.6965 6.32052 43.8061C6.62831 44.4073 6.85021 44.017 7.02221 44.1711C7.13525 44.2727 6.82624 44.6662 6.94857 44.7285C6.91737 45.2263 7.0194 44.7283 6.86685 45.0597C6.82673 45.1556 6.83382 45.2402 6.77828 45.3258C9.83047 49.119 14.0792 51.9642 18.7761 53.3683L18.7759 53.3692L18.7805 53.3695C20.058 53.7516 22.0452 54.1249 23.322 54.292C23.3188 54.2793 22.4822 53.6653 22.291 53.4972C17.6297 49.3975 14.5651 44.0691 13.2468 38.3653C13.2468 38.3681 11.9699 31.9602 13.0244 26.4993ZM25.233 53.8928C25.6824 53.5619 26.1234 53.216 26.5521 52.8597C27.5392 48.0984 26.9999 43.3183 25.2281 39.0668C23.4574 43.3158 22.9171 48.0924 23.9016 52.8505C24.3319 53.2088 24.7753 53.5567 25.233 53.8928ZM22.0525 51.1649C21.4483 46.291 22.3115 41.4687 24.3634 37.219C23.2644 35.1112 21.5523 32.7826 19.8611 31.0744C17.5869 30.9363 18.715 30.1128 19.2093 30.5511C17.7818 29.2548 16.1736 28.1262 14.4693 27.2128C12.9404 35.7216 15.8633 44.985 22.0525 51.1649Z" fill="#2B2A29"/>
<path fill-rule="evenodd" clip-rule="evenodd" d="M25.2551 1.41211C26.4433 1.41211 27.4068 2.36392 27.4068 3.53774C27.4068 4.71168 26.4433 5.66325 25.2551 5.66325C24.0668 5.66325 23.1034 4.71168 23.1034 3.53774C23.1034 2.36392 24.0668 1.41211 25.2551 1.41211Z" fill="#F6E2A5"/>
<path fill-rule="evenodd" clip-rule="evenodd" d="M25.2562 0.0605469C27.1997 0.0605469 28.7747 1.61637 28.7747 3.53631C28.7747 5.45626 27.1997 7.0122 25.2562 7.0122C23.3127 7.0122 21.7378 5.45626 21.7378 3.53631C21.7378 1.61637 23.3127 0.0605469 25.2562 0.0605469ZM25.2562 1.41745C26.4411 1.41745 27.4012 2.36588 27.4012 3.53631C27.4012 4.70687 26.4411 5.6553 25.2562 5.6553C24.0714 5.6553 23.1113 4.70687 23.1113 3.53631C23.1113 2.36588 24.0714 1.41745 25.2562 1.41745Z" fill="#2B2A29"/>
<path d="M25.2569 0C26.2457 0 27.1408 0.395904 27.7887 1.03581C28.4363 1.67571 28.8371 2.56009 28.8371 3.5368C28.8371 4.51351 28.4363 5.39801 27.7887 6.03791C27.1408 6.67781 26.2457 7.07371 25.2569 7.07371C24.2682 7.07371 23.3731 6.67781 22.7253 6.03791C22.0776 5.39801 21.6768 4.51351 21.6768 3.5368C21.6768 2.56009 22.0776 1.67571 22.7253 1.03581C23.3731 0.395904 24.2682 0 25.2569 0ZM27.7014 1.12197C27.0759 0.504186 26.2116 0.121938 25.2569 0.121938C24.3022 0.121938 23.438 0.504186 22.8126 1.12197C22.1871 1.73988 21.8002 2.59368 21.8002 3.5368C21.8002 4.47991 22.1871 5.33384 22.8126 5.95174C23.438 6.56953 24.3022 6.95178 25.2569 6.95178C26.2116 6.95178 27.0759 6.56953 27.7014 5.95174C28.3267 5.33384 28.7137 4.47991 28.7137 3.5368C28.7137 2.59368 28.3267 1.73988 27.7014 1.12197ZM25.2569 1.35702C25.8664 1.35702 26.4182 1.60102 26.8174 1.99535C27.2166 2.38993 27.4636 2.93508 27.4636 3.5368C27.4636 4.13887 27.2166 4.6839 26.8174 5.07836C26.4182 5.47269 25.8664 5.71669 25.2569 5.71669C24.6476 5.71669 24.0958 5.47269 23.6966 5.07836C23.2974 4.6839 23.0503 4.13887 23.0503 3.5368C23.0503 2.93508 23.2974 2.38993 23.6967 1.99548C24.0958 1.60102 24.6476 1.35702 25.2569 1.35702ZM26.7302 2.08164C26.3533 1.7093 25.8324 1.47896 25.2569 1.47896C24.6816 1.47896 24.1607 1.7093 23.7838 2.08164C23.4069 2.45362 23.1737 2.96832 23.1737 3.5368C23.1737 4.10527 23.4069 4.61973 23.7838 4.99207C24.1607 5.36441 24.6816 5.59475 25.2569 5.59475C25.8324 5.59475 26.3533 5.36441 26.7302 4.99207C27.107 4.61973 27.3402 4.10527 27.3402 3.5368C27.3402 2.96832 27.1071 2.45362 26.7302 2.08164Z" fill="#2B2A29"/>
<defs>
<linearGradient id="paint0_linear_17191_41617" x1="24.0911" y1="57.6978" x2="5.17979" y2="20.7152" gradientUnits="userSpaceOnUse">
<stop stop-color="#C73030"/>
<stop offset="0.6" stop-color="#DD6D6C"/>
<stop offset="1" stop-color="#F4ABA9"/>
</linearGradient>
<linearGradient id="paint1_linear_17191_41617" x1="23.3939" y1="49.018" x2="48.3246" y2="29.2885" gradientUnits="userSpaceOnUse">
<stop stop-color="#76C6C6"/>
<stop offset="0.768627" stop-color="#BAE2E2"/>
<stop offset="1" stop-color="#FEFEFE"/>
</linearGradient>
</defs>
</svg>
